<svg version="1.1" viewBox="0.0 0.0 802.0 393.0" fill="none" stroke="none" stroke-linecap="square" stroke-miterlimit="10" width="802" height="393" xmlns:xlink="http://www.w3.org/1999/xlink" xmlns="http://www.w3.org/2000/svg"><path fill="#ffffff" d="M0 0L802.0 0L802.0 393.0L0 393.0L0 0Z" fill-rule="nonzero"/><path stroke="#333333" stroke-width="1.0" stroke-linecap="butt" d="M46.5 353.5L782.5 353.5" fill-rule="nonzero"/><path stroke="#cccccc" stroke-width="1.0" stroke-linecap="butt" d="M46.5 299.5L782.5 299.5" fill-rule="nonzero"/><path stroke="#cccccc" stroke-width="1.0" stroke-linecap="butt" d="M46.5 245.5L782.5 245.5" fill-rule="nonzero"/><path stroke="#cccccc" stroke-width="1.0" stroke-linecap="butt" d="M46.5 191.5L782.5 191.5" fill-rule="nonzero"/><path stroke="#cccccc" stroke-width="1.0" stroke-linecap="butt" d="M46.5 136.5L782.5 136.5" fill-rule="nonzero"/><path stroke="#cccccc" stroke-width="1.0" stroke-linecap="butt" d="M46.5 82.5L782.5 82.5" fill-rule="nonzero"/><clipPath id="id_0"><path d="M46.65 82.9117L782.35 82.9117L782.35 353.35L46.65 353.35L46.65 82.9117Z" clip-rule="nonzero"/></clipPath><path stroke="#000000" stroke-width="0.0" stroke-linecap="butt" stroke-opacity="0.0" clip-path="url(#id_0)" d="M82.0 353.0L69.0 353.0L69.0 301.0C69.0 299.89542 69.89543 299.0 71.0 299.0L80.0 299.0C81.10457 299.0 82.0 299.89542 82.0 301.0Z" fill-rule="nonzero"/><path fill="#9fc5e8" clip-path="url(#id_0)" d="M82.0 353.0L69.0 353.0L69.0 301.0C69.0 299.89542 69.89543 299.0 71.0 299.0L80.0 299.0C81.10457 299.0 82.0 299.89542 82.0 301.0Z" fill-rule="nonzero"/><path stroke="#000000" stroke-width="0.0" stroke-linecap="butt" stroke-opacity="0.0" clip-path="url(#id_0)" d="M147.0 353.0L134.0 353.0L134.0 302.0C134.0 300.89542 134.89543 300.0 136.0 300.0L145.0 300.0C146.10457 300.0 147.0 300.89542 147.0 302.0Z" fill-rule="nonzero"/><path fill="#9fc5e8" clip-path="url(#id_0)" d="M147.0 353.0L134.0 353.0L134.0 302.0C134.0 300.89542 134.89543 300.0 136.0 300.0L145.0 300.0C146.10457 300.0 147.0 300.89542 147.0 302.0Z" fill-rule="nonzero"/><path stroke="#000000" stroke-width="0.0" stroke-linecap="butt" stroke-opacity="0.0" clip-path="url(#id_0)" d="M212.0 353.0L199.0 353.0L199.0 253.0C199.0 251.89543 199.89543 251.0 201.0 251.0L210.0 251.0C211.10457 251.0 212.0 251.89543 212.0 253.0Z" fill-rule="nonzero"/><path fill="#9fc5e8" clip-path="url(#id_0)" d="M212.0 353.0L199.0 353.0L199.0 253.0C199.0 251.89543 199.89543 251.0 201.0 251.0L210.0 251.0C211.10457 251.0 212.0 251.89543 212.0 253.0Z" fill-rule="nonzero"/><path stroke="#000000" stroke-width="0.0" stroke-linecap="butt" stroke-opacity="0.0" clip-path="url(#id_0)" d="M277.0 353.0L264.0 353.0L264.0 180.0C264.0 178.89543 264.89542 178.0 266.0 178.0L275.0 178.0C276.10458 178.0 277.0 178.89543 277.0 180.0Z" fill-rule="nonzero"/><path fill="#9fc5e8" clip-path="url(#id_0)" d="M277.0 353.0L264.0 353.0L264.0 180.0C264.0 178.89543 264.89542 178.0 266.0 178.0L275.0 178.0C276.10458 178.0 277.0 178.89543 277.0 180.0Z" fill-rule="nonzero"/><path stroke="#000000" stroke-width="0.0" stroke-linecap="butt" stroke-opacity="0.0" clip-path="url(#id_0)" d="M342.0 353.0L329.0 353.0L329.0 160.0C329.0 158.89543 329.89542 158.0 331.0 158.0L340.0 158.0C341.10458 158.0 342.0 158.89543 342.0 160.0Z" fill-rule="nonzero"/><path fill="#9fc5e8" clip-path="url(#id_0)" d="M342.0 353.0L329.0 353.0L329.0 160.0C329.0 158.89543 329.89542 158.0 331.0 158.0L340.0 158.0C341.10458 158.0 342.0 158.89543 342.0 160.0Z" fill-rule="nonzero"/><path stroke="#000000" stroke-width="0.0" stroke-linecap="butt" stroke-opacity="0.0" clip-path="url(#id_0)" d="M407.0 353.0L394.0 353.0L394.0 150.0C394.0 148.89543 394.89542 148.0 396.0 148.0L405.0 148.0C406.10458 148.0 407.0 148.89543 407.0 150.0Z" fill-rule="nonzero"/><path fill="#9fc5e8" clip-path="url(#id_0)" d="M407.0 353.0L394.0 353.0L394.0 150.0C394.0 148.89543 394.89542 148.0 396.0 148.0L405.0 148.0C406.10458 148.0 407.0 148.89543 407.0 150.0Z" fill-rule="nonzero"/><path stroke="#000000" stroke-width="0.0" stroke-linecap="butt" stroke-opacity="0.0" clip-path="url(#id_0)" d="M471.0 353.0L458.0 353.0L458.0 144.0C458.0 142.89543 458.89542 142.0 460.0 142.0L469.0 142.0C470.10458 142.0 471.0 142.89543 471.0 144.0Z" fill-rule="nonzero"/><path fill="#9fc5e8" clip-path="url(#id_0)" d="M471.0 353.0L458.0 353.0L458.0 144.0C458.0 142.89543 458.89542 142.0 460.0 142.0L469.0 142.0C470.10458 142.0 471.0 142.89543 471.0 144.0Z" fill-rule="nonzero"/><path stroke="#000000" stroke-width="0.0" stroke-linecap="butt" stroke-opacity="0.0" clip-path="url(#id_0)" d="M536.0 353.0L523.0 353.0L523.0 140.0C523.0 138.89543 523.89545 138.0 525.0 138.0L534.0 138.0C535.10455 138.0 536.0 138.89543 536.0 140.0Z" fill-rule="nonzero"/><path fill="#9fc5e8" clip-path="url(#id_0)" d="M536.0 353.0L523.0 353.0L523.0 140.0C523.0 138.89543 523.89545 138.0 525.0 138.0L534.0 138.0C535.10455 138.0 536.0 138.89543 536.0 140.0Z" fill-rule="nonzero"/><path stroke="#000000" stroke-width="0.0" stroke-linecap="butt" stroke-opacity="0.0" clip-path="url(#id_0)" d="M601.0 353.0L588.0 353.0L588.0 140.0C588.0 138.89543 588.89545 138.0 590.0 138.0L599.0 138.0C600.10455 138.0 601.0 138.89543 601.0 140.0Z" fill-rule="nonzero"/><path fill="#9fc5e8" clip-path="url(#id_0)" d="M601.0 353.0L588.0 353.0L588.0 140.0C588.0 138.89543 588.89545 138.0 590.0 138.0L599.0 138.0C600.10455 138.0 601.0 138.89543 601.0 140.0Z" fill-rule="nonzero"/><path stroke="#000000" stroke-width="0.0" stroke-linecap="butt" stroke-opacity="0.0" clip-path="url(#id_0)" d="M666.0 353.0L653.0 353.0L653.0 139.0C653.0 137.89543 653.89545 137.0 655.0 137.0L664.0 137.0C665.10455 137.0 666.0 137.89543 666.0 139.0Z" fill-rule="nonzero"/><path fill="#9fc5e8" clip-path="url(#id_0)" d="M666.0 353.0L653.0 353.0L653.0 139.0C653.0 137.89543 653.89545 137.0 655.0 137.0L664.0 137.0C665.10455 137.0 666.0 137.89543 666.0 139.0Z" fill-rule="nonzero"/><path stroke="#000000" stroke-width="0.0" stroke-linecap="butt" stroke-opacity="0.0" clip-path="url(#id_0)" d="M731.0 353.0L718.0 353.0L718.0 139.0C718.0 137.89543 718.89545 137.0 720.0 137.0L729.0 137.0C730.10455 137.0 731.0 137.89543 731.0 139.0Z" fill-rule="nonzero"/><path fill="#9fc5e8" clip-path="url(#id_0)" d="M731.0 353.0L718.0 353.0L718.0 139.0C718.0 137.89543 718.89545 137.0 720.0 137.0L729.0 137.0C730.10455 137.0 731.0 137.89543 731.0 139.0Z" fill-rule="nonzero"/><path stroke="#000000" stroke-width="0.0" stroke-linecap="butt" stroke-opacity="0.0" clip-path="url(#id_0)" d="M96.0 353.0L83.0 353.0L83.0 293.0C83.0 291.89542 83.89543 291.0 85.0 291.0L94.0 291.0C95.10457 291.0 96.0 291.89542 96.0 293.0Z" fill-rule="nonzero"/><path fill="#0b5394" clip-path="url(#id_0)" d="M96.0 353.0L83.0 353.0L83.0 293.0C83.0 291.89542 83.89543 291.0 85.0 291.0L94.0 291.0C95.10457 291.0 96.0 291.89542 96.0 293.0Z" fill-rule="nonzero"/><path stroke="#000000" stroke-width="0.0" stroke-linecap="butt" stroke-opacity="0.0" clip-path="url(#id_0)" d="M161.0 353.0L148.0 353.0L148.0 299.0C148.0 297.89542 148.89543 297.0 150.0 297.0L159.0 297.0C160.10457 297.0 161.0 297.89542 161.0 299.0Z" fill-rule="nonzero"/><path fill="#0b5394" clip-path="url(#id_0)" d="M161.0 353.0L148.0 353.0L148.0 299.0C148.0 297.89542 148.89543 297.0 150.0 297.0L159.0 297.0C160.10457 297.0 161.0 297.89542 161.0 299.0Z" fill-rule="nonzero"/><path stroke="#000000" stroke-width="0.0" stroke-linecap="butt" stroke-opacity="0.0" clip-path="url(#id_0)" d="M226.0 353.0L213.0 353.0L213.0 247.0C213.0 245.89543 213.89543 245.0 215.0 245.0L224.0 245.0C225.10457 245.0 226.0 245.89543 226.0 247.0Z" fill-rule="nonzero"/><path fill="#0b5394" clip-path="url(#id_0)" d="M226.0 353.0L213.0 353.0L213.0 247.0C213.0 245.89543 213.89543 245.0 215.0 245.0L224.0 245.0C225.10457 245.0 226.0 245.89543 226.0 247.0Z" fill-rule="nonzero"/><path stroke="#000000" stroke-width="0.0" stroke-linecap="butt" stroke-opacity="0.0" clip-path="url(#id_0)" d="M291.0 353.0L278.0 353.0L278.0 174.0C278.0 172.89543 278.89542 172.0 280.0 172.0L289.0 172.0C290.10458 172.0 291.0 172.89543 291.0 174.0Z" fill-rule="nonzero"/><path fill="#0b5394" clip-path="url(#id_0)" d="M291.0 353.0L278.0 353.0L278.0 174.0C278.0 172.89543 278.89542 172.0 280.0 172.0L289.0 172.0C290.10458 172.0 291.0 172.89543 291.0 174.0Z" fill-rule="nonzero"/><path stroke="#000000" stroke-width="0.0" stroke-linecap="butt" stroke-opacity="0.0" clip-path="url(#id_0)" d="M356.0 353.0L343.0 353.0L343.0 157.0C343.0 155.89543 343.89542 155.0 345.0 155.0L354.0 155.0C355.10458 155.0 356.0 155.89543 356.0 157.0Z" fill-rule="nonzero"/><path fill="#0b5394" clip-path="url(#id_0)" d="M356.0 353.0L343.0 353.0L343.0 157.0C343.0 155.89543 343.89542 155.0 345.0 155.0L354.0 155.0C355.10458 155.0 356.0 155.89543 356.0 157.0Z" fill-rule="nonzero"/><path stroke="#000000" stroke-width="0.0" stroke-linecap="butt" stroke-opacity="0.0" clip-path="url(#id_0)" d="M421.0 353.0L408.0 353.0L408.0 148.0C408.0 146.89543 408.89542 146.0 410.0 146.0L419.0 146.0C420.10458 146.0 421.0 146.89543 421.0 148.0Z" fill-rule="nonzero"/><path fill="#0b5394" clip-path="url(#id_0)" d="M421.0 353.0L408.0 353.0L408.0 148.0C408.0 146.89543 408.89542 146.0 410.0 146.0L419.0 146.0C420.10458 146.0 421.0 146.89543 421.0 148.0Z" fill-rule="nonzero"/><path stroke="#000000" stroke-width="0.0" stroke-linecap="butt" stroke-opacity="0.0" clip-path="url(#id_0)" d="M485.0 353.0L472.0 353.0L472.0 142.0C472.0 140.89543 472.89542 140.0 474.0 140.0L483.0 140.0C484.10458 140.0 485.0 140.89543 485.0 142.0Z" fill-rule="nonzero"/><path fill="#0b5394" clip-path="url(#id_0)" d="M485.0 353.0L472.0 353.0L472.0 142.0C472.0 140.89543 472.89542 140.0 474.0 140.0L483.0 140.0C484.10458 140.0 485.0 140.89543 485.0 142.0Z" fill-rule="nonzero"/><path stroke="#000000" stroke-width="0.0" stroke-linecap="butt" stroke-opacity="0.0" clip-path="url(#id_0)" d="M550.0 353.0L537.0 353.0L537.0 141.0C537.0 139.89543 537.89545 139.0 539.0 139.0L548.0 139.0C549.10455 139.0 550.0 139.89543 550.0 141.0Z" fill-rule="nonzero"/><path fill="#0b5394" clip-path="url(#id_0)" d="M550.0 353.0L537.0 353.0L537.0 141.0C537.0 139.89543 537.89545 139.0 539.0 139.0L548.0 139.0C549.10455 139.0 550.0 139.89543 550.0 141.0Z" fill-rule="nonzero"/><path stroke="#000000" stroke-width="0.0" stroke-linecap="butt" stroke-opacity="0.0" clip-path="url(#id_0)" d="M615.0 353.0L602.0 353.0L602.0 141.0C602.0 139.89543 602.89545 139.0 604.0 139.0L613.0 139.0C614.10455 139.0 615.0 139.89543 615.0 141.0Z" fill-rule="nonzero"/><path fill="#0b5394" clip-path="url(#id_0)" d="M615.0 353.0L602.0 353.0L602.0 141.0C602.0 139.89543 602.89545 139.0 604.0 139.0L613.0 139.0C614.10455 139.0 615.0 139.89543 615.0 141.0Z" fill-rule="nonzero"/><path stroke="#000000" stroke-width="0.0" stroke-linecap="butt" stroke-opacity="0.0" clip-path="url(#id_0)" d="M680.0 353.0L667.0 353.0L667.0 141.0C667.0 139.89543 667.89545 139.0 669.0 139.0L678.0 139.0C679.10455 139.0 680.0 139.89543 680.0 141.0Z" fill-rule="nonzero"/><path fill="#0b5394" clip-path="url(#id_0)" d="M680.0 353.0L667.0 353.0L667.0 141.0C667.0 139.89543 667.89545 139.0 669.0 139.0L678.0 139.0C679.10455 139.0 680.0 139.89543 680.0 141.0Z" fill-rule="nonzero"/><path stroke="#000000" stroke-width="0.0" stroke-linecap="butt" stroke-opacity="0.0" clip-path="url(#id_0)" d="M745.0 353.0L732.0 353.0L732.0 139.0C732.0 137.89543 732.89545 137.0 734.0 137.0L743.0 137.0C744.10455 137.0 745.0 137.89543 745.0 139.0Z" fill-rule="nonzero"/><path fill="#0b5394" clip-path="url(#id_0)" d="M745.0 353.0L732.0 353.0L732.0 139.0C732.0 137.89543 732.89545 137.0 734.0 137.0L743.0 137.0C744.10455 137.0 745.0 137.89543 745.0 139.0Z" fill-rule="nonzero"/><path stroke="#000000" stroke-width="0.0" stroke-linecap="butt" stroke-opacity="0.0" clip-path="url(#id_0)" d="M110.0 353.0L97.0 353.0L97.0 286.0C97.0 284.89542 97.89543 284.0 99.0 284.0L108.0 284.0C109.10457 284.0 110.0 284.89542 110.0 286.0Z" fill-rule="nonzero"/><path fill="#990000" clip-path="url(#id_0)" d="M110.0 353.0L97.0 353.0L97.0 286.0C97.0 284.89542 97.89543 284.0 99.0 284.0L108.0 284.0C109.10457 284.0 110.0 284.89542 110.0 286.0Z" fill-rule="nonzero"/><path stroke="#000000" stroke-width="0.0" stroke-linecap="butt" stroke-opacity="0.0" clip-path="url(#id_0)" d="M175.0 353.0L162.0 353.0L162.0 226.0C162.0 224.89543 162.89543 224.0 164.0 224.0L173.0 224.0C174.10457 224.0 175.0 224.89543 175.0 226.0Z" fill-rule="nonzero"/><path fill="#990000" clip-path="url(#id_0)" d="M175.0 353.0L162.0 353.0L162.0 226.0C162.0 224.89543 162.89543 224.0 164.0 224.0L173.0 224.0C174.10457 224.0 175.0 224.89543 175.0 226.0Z" fill-rule="nonzero"/><path stroke="#000000" stroke-width="0.0" stroke-linecap="butt" stroke-opacity="0.0" clip-path="url(#id_0)" d="M240.0 353.0L227.0 353.0L227.0 214.0C227.0 212.89543 227.89543 212.0 229.0 212.0L238.0 212.0C239.10457 212.0 240.0 212.89543 240.0 214.0Z" fill-rule="nonzero"/><path fill="#990000" clip-path="url(#id_0)" d="M240.0 353.0L227.0 353.0L227.0 214.0C227.0 212.89543 227.89543 212.0 229.0 212.0L238.0 212.0C239.10457 212.0 240.0 212.89543 240.0 214.0Z" fill-rule="nonzero"/><path stroke="#000000" stroke-width="0.0" stroke-linecap="butt" stroke-opacity="0.0" clip-path="url(#id_0)" d="M305.0 353.0L292.0 353.0L292.0 124.0C292.0 122.89543 292.89542 122.0 294.0 122.0L303.0 122.0C304.10458 122.0 305.0 122.89543 305.0 124.0Z" fill-rule="nonzero"/><path fill="#990000" clip-path="url(#id_0)" d="M305.0 353.0L292.0 353.0L292.0 124.0C292.0 122.89543 292.89542 122.0 294.0 122.0L303.0 122.0C304.10458 122.0 305.0 122.89543 305.0 124.0Z" fill-rule="nonzero"/><path stroke="#000000" stroke-width="0.0" stroke-linecap="butt" stroke-opacity="0.0" clip-path="url(#id_0)" d="M370.0 353.0L357.0 353.0L357.0 118.0C357.0 116.89543 357.89542 116.0 359.0 116.0L368.0 116.0C369.10458 116.0 370.0 116.89543 370.0 118.0Z" fill-rule="nonzero"/><path fill="#990000" clip-path="url(#id_0)" d="M370.0 353.0L357.0 353.0L357.0 118.0C357.0 116.89543 357.89542 116.0 359.0 116.0L368.0 116.0C369.10458 116.0 370.0 116.89543 370.0 118.0Z" fill-rule="nonzero"/><path stroke="#000000" stroke-width="0.0" stroke-linecap="butt" stroke-opacity="0.0" clip-path="url(#id_0)" d="M435.0 353.0L422.0 353.0L422.0 115.0C422.0 113.89543 422.89542 113.0 424.0 113.0L433.0 113.0C434.10458 113.0 435.0 113.89543 435.0 115.0Z" fill-rule="nonzero"/><path fill="#990000" clip-path="url(#id_0)" d="M435.0 353.0L422.0 353.0L422.0 115.0C422.0 113.89543 422.89542 113.0 424.0 113.0L433.0 113.0C434.10458 113.0 435.0 113.89543 435.0 115.0Z" fill-rule="nonzero"/><path stroke="#000000" stroke-width="0.0" stroke-linecap="butt" stroke-opacity="0.0" clip-path="url(#id_0)" d="M499.0 353.0L486.0 353.0L486.0 114.0C486.0 112.89543 486.89542 112.0 488.0 112.0L497.0 112.0C498.10458 112.0 499.0 112.89543 499.0 114.0Z" fill-rule="nonzero"/><path fill="#990000" clip-path="url(#id_0)" d="M499.0 353.0L486.0 353.0L486.0 114.0C486.0 112.89543 486.89542 112.0 488.0 112.0L497.0 112.0C498.10458 112.0 499.0 112.89543 499.0 114.0Z" fill-rule="nonzero"/><path stroke="#000000" stroke-width="0.0" stroke-linecap="butt" stroke-opacity="0.0" clip-path="url(#id_0)" d="M564.0 353.0L551.0 353.0L551.0 113.0C551.0 111.89543 551.89545 111.0 553.0 111.0L562.0 111.0C563.10455 111.0 564.0 111.89543 564.0 113.0Z" fill-rule="nonzero"/><path fill="#990000" clip-path="url(#id_0)" d="M564.0 353.0L551.0 353.0L551.0 113.0C551.0 111.89543 551.89545 111.0 553.0 111.0L562.0 111.0C563.10455 111.0 564.0 111.89543 564.0 113.0Z" fill-rule="nonzero"/><path stroke="#000000" stroke-width="0.0" stroke-linecap="butt" stroke-opacity="0.0" clip-path="url(#id_0)" d="M629.0 353.0L616.0 353.0L616.0 114.0C616.0 112.89543 616.89545 112.0 618.0 112.0L627.0 112.0C628.10455 112.0 629.0 112.89543 629.0 114.0Z" fill-rule="nonzero"/><path fill="#990000" clip-path="url(#id_0)" d="M629.0 353.0L616.0 353.0L616.0 114.0C616.0 112.89543 616.89545 112.0 618.0 112.0L627.0 112.0C628.10455 112.0 629.0 112.89543 629.0 114.0Z" fill-rule="nonzero"/><path stroke="#000000" stroke-width="0.0" stroke-linecap="butt" stroke-opacity="0.0" clip-path="url(#id_0)" d="M694.0 353.0L681.0 353.0L681.0 116.0C681.0 114.89543 681.89545 114.0 683.0 114.0L692.0 114.0C693.10455 114.0 694.0 114.89543 694.0 116.0Z" fill-rule="nonzero"/><path fill="#990000" clip-path="url(#id_0)" d="M694.0 353.0L681.0 353.0L681.0 116.0C681.0 114.89543 681.89545 114.0 683.0 114.0L692.0 114.0C693.10455 114.0 694.0 114.89543 694.0 116.0Z" fill-rule="nonzero"/><path stroke="#000000" stroke-width="0.0" stroke-linecap="butt" stroke-opacity="0.0" clip-path="url(#id_0)" d="M759.0 353.0L746.0 353.0L746.0 115.0C746.0 113.89543 746.89545 113.0 748.0 113.0L757.0 113.0C758.10455 113.0 759.0 113.89543 759.0 115.0Z" fill-rule="nonzero"/><path fill="#990000" clip-path="url(#id_0)" d="M759.0 353.0L746.0 353.0L746.0 115.0C746.0 113.89543 746.89545 113.0 748.0 113.0L757.0 113.0C758.10455 113.0 759.0 113.89543 759.0 115.0Z" fill-rule="nonzero"/><path fill="#000000" d="M34.15 353.11563Q34.15 351.58438 34.4625 350.6625Q34.775 349.725 35.384377 349.225Q36.009377 348.725 36.946877 348.725Q37.634377 348.725 38.15 349.00626Q38.68125 349.2875 39.025 349.81876Q39.36875 350.33438 39.55625 351.08438Q39.74375 351.83438 39.74375 353.11563Q39.74375 354.63126 39.43125 355.55313Q39.134377 356.475 38.509377 356.99063Q37.9 357.49063 36.946877 357.49063Q35.7125 357.49063 34.99375 356.6Q34.15 355.5375 34.15 353.11563ZM35.228127 353.11563Q35.228127 355.225 35.728127 355.92813Q36.228127 356.63126 36.946877 356.63126Q37.68125 356.63126 38.165627 355.92813Q38.665627 355.225 38.665627 353.11563Q38.665627 350.99063 38.165627 350.30313Q37.68125 349.6 36.93125 349.6Q36.2125 349.6 35.775 350.20938Q35.228127 350.99063 35.228127 353.11563Z" fill-rule="nonzero"/><path fill="#000000" d="M38.11875 303.26233L37.071877 303.26233L37.071877 296.54358Q36.68125 296.90295 36.05625 297.27795Q35.446877 297.63733 34.9625 297.8092L34.9625 296.79358Q35.8375 296.3717 36.49375 295.79358Q37.165627 295.19983 37.446877 294.63733L38.11875 294.63733L38.11875 303.26233Z" fill-rule="nonzero"/><path fill="#000000" d="M39.696877 248.15906L39.696877 249.17468L34.009377 249.17468Q34.009377 248.79968 34.134377 248.4403Q34.353127 247.86218 34.821877 247.29968Q35.30625 246.73718 36.2125 246.0028Q37.61875 244.84656 38.103127 244.17468Q38.603127 243.5028 38.603127 242.90906Q38.603127 242.28406 38.15 241.86218Q37.696877 241.42468 36.978127 241.42468Q36.2125 241.42468 35.759377 241.8778Q35.30625 242.33093 35.290627 243.14343L34.2125 243.03406Q34.321877 241.8153 35.040627 241.1903Q35.775 240.54968 37.009377 240.54968Q38.24375 240.54968 38.9625 241.23718Q39.68125 241.92468 39.68125 242.9403Q39.68125 243.45593 39.4625 243.95593Q39.259377 244.4403 38.759377 245.0028Q38.275 245.54968 37.15 246.5028Q36.196877 247.29968 35.915627 247.59656Q35.65 247.8778 35.478127 248.15906L39.696877 248.15906Z" fill-rule="nonzero"/><path fill="#000000" d="M34.15 192.8214L35.2125 192.68077Q35.384377 193.5714 35.821877 193.97765Q36.259377 194.36827 36.884377 194.36827Q37.634377 194.36827 38.15 193.85265Q38.665627 193.33702 38.665627 192.5714Q38.665627 191.85265 38.18125 191.3839Q37.7125 190.89952 36.978127 190.89952Q36.68125 190.89952 36.228127 191.02452L36.353127 190.08702Q36.4625 190.10265 36.525 190.10265Q37.196877 190.10265 37.728127 189.7589Q38.275 189.39952 38.275 188.66515Q38.275 188.08702 37.884377 187.71202Q37.49375 187.3214 36.86875 187.3214Q36.259377 187.3214 35.8375 187.71202Q35.43125 188.10265 35.321877 188.86827L34.259377 188.68077Q34.446877 187.6339 35.134377 187.05577Q35.821877 186.46202 36.8375 186.46202Q37.540627 186.46202 38.134377 186.77452Q38.728127 187.0714 39.040627 187.58702Q39.353127 188.10265 39.353127 188.6964Q39.353127 189.24327 39.05625 189.71202Q38.759377 190.16515 38.18125 190.43077Q38.93125 190.60265 39.353127 191.16515Q39.775 191.71202 39.775 192.55577Q39.775 193.68077 38.946877 194.46202Q38.134377 195.24327 36.884377 195.24327Q35.759377 195.24327 35.009377 194.5714Q34.259377 193.8839 34.15 192.8214Z" fill-rule="nonzero"/><path fill="#000000" d="M37.525 140.99936L37.525 138.93686L33.80625 138.93686L33.80625 137.96811L37.728127 132.40561L38.5875 132.40561L38.5875 137.96811L39.74375 137.96811L39.74375 138.93686L38.5875 138.93686L38.5875 140.99936L37.525 140.99936ZM37.525 137.96811L37.525 134.10873L34.8375 137.96811L37.525 137.96811Z" fill-rule="nonzero"/><path fill="#000000" d="M34.15 84.6617L35.259377 84.56795Q35.384377 85.38045 35.821877 85.7867Q36.275 86.19295 36.915627 86.19295Q37.665627 86.19295 38.196877 85.61482Q38.728127 85.0367 38.728127 84.0992Q38.728127 83.19295 38.2125 82.67732Q37.7125 82.14607 36.884377 82.14607Q36.384377 82.14607 35.9625 82.38045Q35.55625 82.61482 35.321877 82.9742L34.3375 82.8492L35.165627 78.44295L39.446877 78.44295L39.446877 79.44295L36.009377 79.44295L35.55625 81.75545Q36.321877 81.20857 37.165627 81.20857Q38.290627 81.20857 39.05625 81.98982Q39.8375 82.77107 39.8375 84.00545Q39.8375 85.1617 39.165627 86.02107Q38.3375 87.05232 36.915627 87.05232Q35.74375 87.05232 34.99375 86.39607Q34.259377 85.73982 34.15 84.6617Z" fill-rule="nonzero"/><path fill="#000000" d="M81.87183 370.35L80.82496 370.35L80.82496 363.63126Q80.43433 363.99063 79.80933 364.36563Q79.19996 364.725 78.71558 364.89688L78.71558 363.88126Q79.59058 363.45938 80.24683 362.88126Q80.91871 362.2875 81.19996 361.725L81.87183 361.725L81.87183 370.35ZM88.19996 370.35L88.19996 361.75626L89.26246 361.75626L89.26246 366.6625L91.74683 364.13126L93.12183 364.13126L90.73121 366.42813L93.35621 370.35L92.05933 370.35L89.99683 367.1625L89.26246 367.88126L89.26246 370.35L88.19996 370.35ZM94.19996 362.975L94.19996 361.75626L95.26246 361.75626L95.26246 362.975L94.19996 362.975ZM94.19996 370.35L94.19996 364.13126L95.26246 364.13126L95.26246 370.35L94.19996 370.35ZM98.16871 370.35L97.18433 370.35L97.18433 361.75626L98.24683 361.75626L98.24683 364.81876Q98.91871 363.99063 99.94996 363.99063Q100.52808 363.99063 101.02808 364.225Q101.54371 364.44376 101.87183 364.86563Q102.21558 365.2875 102.40308 365.88126Q102.59058 366.475 102.59058 367.14688Q102.59058 368.74063 101.79371 369.61563Q100.99683 370.49063 99.90308 370.49063Q98.79371 370.49063 98.16871 369.56876L98.16871 370.35ZM98.15308 367.19376Q98.15308 368.30313 98.46558 368.80313Q98.96558 369.61563 99.80933 369.61563Q100.49683 369.61563 100.99683 369.02188Q101.51246 368.42813 101.51246 367.225Q101.51246 366.00626 101.02808 365.42813Q100.54371 364.85 99.85621 364.85Q99.16871 364.85 98.65308 365.45938Q98.15308 366.05313 98.15308 367.19376Z" fill-rule="nonzero"/><path fill="#000000" d="M148.26935 369.33438L148.26935 370.35L142.58185 370.35Q142.58185 369.975 142.70685 369.61563Q142.9256 369.0375 143.39435 368.475Q143.87872 367.9125 144.78497 367.17813Q146.19122 366.02188 146.6756 365.35Q147.1756 364.67813 147.1756 364.08438Q147.1756 363.45938 146.72247 363.0375Q146.26935 362.6 145.5506 362.6Q144.78497 362.6 144.33185 363.05313Q143.87872 363.50626 143.8631 364.31876L142.78497 364.20938Q142.89435 362.99063 143.6131 362.36563Q144.34747 361.725 145.58185 361.725Q146.81622 361.725 147.53497 362.4125Q148.25372 363.1 148.25372 364.11563Q148.25372 364.63126 148.03497 365.13126Q147.83185 365.61563 147.33185 366.17813Q146.84747 366.725 145.72247 367.67813Q144.76935 368.475 144.4881 368.77188Q144.22247 369.05313 144.0506 369.33438L148.26935 369.33438ZM153.01935 370.35L153.01935 361.75626L154.08185 361.75626L154.08185 366.6625L156.56622 364.13126L157.94122 364.13126L155.5506 366.42813L158.1756 370.35L156.87872 370.35L154.81622 367.1625L154.08185 367.88126L154.08185 370.35L153.01935 370.35ZM159.01935 362.975L159.01935 361.75626L160.08185 361.75626L160.08185 362.975L159.01935 362.975ZM159.01935 370.35L159.01935 364.13126L160.08185 364.13126L160.08185 370.35L159.01935 370.35ZM162.9881 370.35L162.00372 370.35L162.00372 361.75626L163.06622 361.75626L163.06622 364.81876Q163.7381 363.99063 164.76935 363.99063Q165.34747 363.99063 165.84747 364.225Q166.3631 364.44376 166.69122 364.86563Q167.03497 365.2875 167.22247 365.88126Q167.40997 366.475 167.40997 367.14688Q167.40997 368.74063 166.6131 369.61563Q165.81622 370.49063 164.72247 370.49063Q163.6131 370.49063 162.9881 369.56876L162.9881 370.35ZM162.97247 367.19376Q162.97247 368.30313 163.28497 368.80313Q163.78497 369.61563 164.62872 369.61563Q165.31622 369.61563 165.81622 369.02188Q166.33185 368.42813 166.33185 367.225Q166.33185 366.00626 165.84747 365.42813Q165.3631 364.85 164.6756 364.85Q163.9881 364.85 163.47247 365.45938Q162.97247 366.05313 162.97247 367.19376Z" fill-rule="nonzero"/><path fill="#000000" d="M210.91685 370.35L210.91685 368.2875L207.1981 368.2875L207.1981 367.31876L211.11998 361.75626L211.97935 361.75626L211.97935 367.31876L213.1356 367.31876L213.1356 368.2875L211.97935 368.2875L211.97935 370.35L210.91685 370.35ZM210.91685 367.31876L210.91685 363.45938L208.22935 367.31876L210.91685 367.31876ZM217.83873 370.35L217.83873 361.75626L218.90123 361.75626L218.90123 366.6625L221.3856 364.13126L222.7606 364.13126L220.36998 366.42813L222.99498 370.35L221.6981 370.35L219.6356 367.1625L218.90123 367.88126L218.90123 370.35L217.83873 370.35ZM223.83873 362.975L223.83873 361.75626L224.90123 361.75626L224.90123 362.975L223.83873 362.975ZM223.83873 370.35L223.83873 364.13126L224.90123 364.13126L224.90123 370.35L223.83873 370.35ZM227.80748 370.35L226.8231 370.35L226.8231 361.75626L227.8856 361.75626L227.8856 364.81876Q228.55748 363.99063 229.58873 363.99063Q230.16685 363.99063 230.66685 364.225Q231.18248 364.44376 231.5106 364.86563Q231.85435 365.2875 232.04185 365.88126Q232.22935 366.475 232.22935 367.14688Q232.22935 368.74063 231.43248 369.61563Q230.6356 370.49063 229.54185 370.49063Q228.43248 370.49063 227.80748 369.56876L227.80748 370.35ZM227.79185 367.19376Q227.79185 368.30313 228.10435 368.80313Q228.60435 369.61563 229.4481 369.61563Q230.1356 369.61563 230.6356 369.02188Q231.15123 368.42813 231.15123 367.225Q231.15123 366.00626 230.66685 365.42813Q230.18248 364.85 229.49498 364.85Q228.80748 364.85 228.29185 365.45938Q227.79185 366.05313 227.79185 367.19376Z" fill-rule="nonzero"/><path fill="#000000" d="M273.98624 365.69376Q273.33 365.44376 273.00186 365.00626Q272.68936 364.55313 272.68936 363.94376Q272.68936 363.00626 273.36124 362.36563Q274.04874 361.725 275.1581 361.725Q276.2831 361.725 276.9706 362.38126Q277.6581 363.0375 277.6581 363.975Q277.6581 364.56876 277.3456 365.00626Q277.0331 365.44376 276.3925 365.69376Q277.18936 365.94376 277.5956 366.52188Q278.00186 367.1 278.00186 367.89688Q278.00186 368.99063 277.2206 369.74063Q276.455 370.49063 275.17374 370.49063Q273.9081 370.49063 273.12686 369.74063Q272.3456 368.99063 272.3456 367.86563Q272.3456 367.02188 272.7675 366.45938Q273.205 365.89688 273.98624 365.69376ZM273.7675 363.89688Q273.7675 364.50626 274.1581 364.89688Q274.56436 365.2875 275.18936 365.2875Q275.79874 365.2875 276.18936 364.9125Q276.58 364.52188 276.58 363.95938Q276.58 363.38126 276.17374 362.99063Q275.7675 362.58438 275.17374 362.58438Q274.56436 362.58438 274.1581 362.975Q273.7675 363.36563 273.7675 363.89688ZM273.43936 367.86563Q273.43936 368.31876 273.6425 368.74063Q273.86124 369.1625 274.2831 369.39688Q274.705 369.63126 275.18936 369.63126Q275.93936 369.63126 276.42374 369.14688Q276.92374 368.6625 276.92374 367.9125Q276.92374 367.14688 276.42374 366.64688Q275.92374 366.14688 275.1581 366.14688Q274.4081 366.14688 273.92374 366.64688Q273.43936 367.13126 273.43936 367.86563ZM282.6581 370.35L282.6581 361.75626L283.7206 361.75626L283.7206 366.6625L286.205 364.13126L287.58 364.13126L285.18936 366.42813L287.81436 370.35L286.5175 370.35L284.455 367.1625L283.7206 367.88126L283.7206 370.35L282.6581 370.35ZM288.6581 362.975L288.6581 361.75626L289.7206 361.75626L289.7206 362.975L288.6581 362.975ZM288.6581 370.35L288.6581 364.13126L289.7206 364.13126L289.7206 370.35L288.6581 370.35ZM292.62686 370.35L291.6425 370.35L291.6425 361.75626L292.705 361.75626L292.705 364.81876Q293.37686 363.99063 294.4081 363.99063Q294.98624 363.99063 295.48624 364.225Q296.00186 364.44376 296.33 364.86563Q296.67374 365.2875 296.86124 365.88126Q297.04874 366.475 297.04874 367.14688Q297.04874 368.74063 296.25186 369.61563Q295.455 370.49063 294.36124 370.49063Q293.25186 370.49063 292.62686 369.56876L292.62686 370.35ZM292.61124 367.19376Q292.61124 368.30313 292.92374 368.80313Q293.42374 369.61563 294.2675 369.61563Q294.955 369.61563 295.455 369.02188Q295.9706 368.42813 295.9706 367.225Q295.9706 366.00626 295.48624 365.42813Q295.00186 364.85 294.31436 364.85Q293.62686 364.85 293.11124 365.45938Q292.61124 366.05313 292.61124 367.19376Z" fill-rule="nonzero"/><path fill="#000000" d="M337.64935 370.35L336.60248 370.35L336.60248 363.63126Q336.21185 363.99063 335.58685 364.36563Q334.97748 364.725 334.4931 364.89688L334.4931 363.88126Q335.3681 363.45938 336.02435 362.88126Q336.69623 362.2875 336.97748 361.725L337.64935 361.725L337.64935 370.35ZM346.14935 363.86563L345.10248 363.94376Q344.96185 363.31876 344.71185 363.0375Q344.27435 362.58438 343.64935 362.58438Q343.14935 362.58438 342.75873 362.86563Q342.27435 363.24063 341.97748 363.94376Q341.69623 364.63126 341.6806 365.9125Q342.0556 365.33438 342.60248 365.05313Q343.16498 364.77188 343.77435 364.77188Q344.82123 364.77188 345.5556 365.55313Q346.3056 366.33438 346.3056 367.55313Q346.3056 368.36563 345.94623 369.06876Q345.60248 369.75626 344.9931 370.13126Q344.38373 370.49063 343.6181 370.49063Q342.28998 370.49063 341.46185 369.52188Q340.63373 368.55313 340.63373 366.33438Q340.63373 363.83438 341.5556 362.70938Q342.35248 361.725 343.71185 361.725Q344.72748 361.725 345.3681 362.30313Q346.02435 362.86563 346.14935 363.86563ZM341.85248 367.56876Q341.85248 368.11563 342.07123 368.61563Q342.3056 369.1 342.71185 369.36563Q343.13373 369.63126 343.60248 369.63126Q344.25873 369.63126 344.7431 369.1Q345.22748 368.55313 345.22748 367.63126Q345.22748 366.74063 344.7431 366.225Q344.27435 365.70938 343.5556 365.70938Q342.83685 365.70938 342.33685 366.225Q341.85248 366.74063 341.85248 367.56876ZM350.97748 370.35L350.97748 361.75626L352.03998 361.75626L352.03998 366.6625L354.52435 364.13126L355.89935 364.13126L353.50873 366.42813L356.13373 370.35L354.83685 370.35L352.77435 367.1625L352.03998 367.88126L352.03998 370.35L350.97748 370.35ZM356.97748 362.975L356.97748 361.75626L358.03998 361.75626L358.03998 362.975L356.97748 362.975ZM356.97748 370.35L356.97748 364.13126L358.03998 364.13126L358.03998 370.35L356.97748 370.35ZM360.94623 370.35L359.96185 370.35L359.96185 361.75626L361.02435 361.75626L361.02435 364.81876Q361.69623 363.99063 362.72748 363.99063Q363.3056 363.99063 363.8056 364.225Q364.32123 364.44376 364.64935 364.86563Q364.9931 365.2875 365.1806 365.88126Q365.3681 366.475 365.3681 367.14688Q365.3681 368.74063 364.57123 369.61563Q363.77435 370.49063 362.6806 370.49063Q361.57123 370.49063 360.94623 369.56876L360.94623 370.35ZM360.9306 367.19376Q360.9306 368.30313 361.2431 368.80313Q361.7431 369.61563 362.58685 369.61563Q363.27435 369.61563 363.77435 369.02188Q364.28998 368.42813 364.28998 367.225Q364.28998 366.00626 363.8056 365.42813Q363.32123 364.85 362.63373 364.85Q361.94623 364.85 361.4306 365.45938Q360.9306 366.05313 360.9306 367.19376Z" fill-rule="nonzero"/><path fill="#000000" d="M398.5 368.08438L399.5625 367.94376Q399.73438 368.83438 400.17188 369.24063Q400.60938 369.63126 401.23438 369.63126Q401.98438 369.63126 402.5 369.11563Q403.01562 368.6 403.01562 367.83438Q403.01562 367.11563 402.53125 366.64688Q402.0625 366.1625 401.32812 366.1625Q401.03125 366.1625 400.57812 366.2875L400.70312 365.35Q400.8125 365.36563 400.875 365.36563Q401.54688 365.36563 402.07812 365.02188Q402.625 364.6625 402.625 363.92813Q402.625 363.35 402.23438 362.975Q401.84375 362.58438 401.21875 362.58438Q400.60938 362.58438 400.1875 362.975Q399.78125 363.36563 399.67188 364.13126L398.60938 363.94376Q398.79688 362.89688 399.48438 362.31876Q400.17188 361.725 401.1875 361.725Q401.89062 361.725 402.48438 362.0375Q403.07812 362.33438 403.39062 362.85Q403.70312 363.36563 403.70312 363.95938Q403.70312 364.50626 403.40625 364.975Q403.10938 365.42813 402.53125 365.69376Q403.28125 365.86563 403.70312 366.42813Q404.125 366.975 404.125 367.81876Q404.125 368.94376 403.29688 369.725Q402.48438 370.50626 401.23438 370.50626Q400.10938 370.50626 399.35938 369.83438Q398.60938 369.14688 398.5 368.08438ZM411.04688 369.33438L411.04688 370.35L405.35938 370.35Q405.35938 369.975 405.48438 369.61563Q405.70312 369.0375 406.17188 368.475Q406.65625 367.9125 407.5625 367.17813Q408.96875 366.02188 409.45312 365.35Q409.95312 364.67813 409.95312 364.08438Q409.95312 363.45938 409.5 363.0375Q409.04688 362.6 408.32812 362.6Q407.5625 362.6 407.10938 363.05313Q406.65625 363.50626 406.64062 364.31876L405.5625 364.20938Q405.67188 362.99063 406.39062 362.36563Q407.125 361.725 408.35938 361.725Q409.59375 361.725 410.3125 362.4125Q411.03125 363.1 411.03125 364.11563Q411.03125 364.63126 410.8125 365.13126Q410.60938 365.61563 410.10938 366.17813Q409.625 366.725 408.5 367.67813Q407.54688 368.475 407.26562 368.77188Q407.0 369.05313 406.82812 369.33438L411.04688 369.33438ZM415.79688 370.35L415.79688 361.75626L416.85938 361.75626L416.85938 366.6625L419.34375 364.13126L420.71875 364.13126L418.32812 366.42813L420.95312 370.35L419.65625 370.35L417.59375 367.1625L416.85938 367.88126L416.85938 370.35L415.79688 370.35ZM421.79688 362.975L421.79688 361.75626L422.85938 361.75626L422.85938 362.975L421.79688 362.975ZM421.79688 370.35L421.79688 364.13126L422.85938 364.13126L422.85938 370.35L421.79688 370.35ZM425.76562 370.35L424.78125 370.35L424.78125 361.75626L425.84375 361.75626L425.84375 364.81876Q426.51562 363.99063 427.54688 363.99063Q428.125 363.99063 428.625 364.225Q429.14062 364.44376 429.46875 364.86563Q429.8125 365.2875 430.0 365.88126Q430.1875 366.475 430.1875 367.14688Q430.1875 368.74063 429.39062 369.61563Q428.59375 370.49063 427.5 370.49063Q426.39062 370.49063 425.76562 369.56876L425.76562 370.35ZM425.75 367.19376Q425.75 368.30313 426.0625 368.80313Q426.5625 369.61563 427.40625 369.61563Q428.09375 369.61563 428.59375 369.02188Q429.10938 368.42813 429.10938 367.225Q429.10938 366.00626 428.625 365.42813Q428.14062 364.85 427.45312 364.85Q426.76562 364.85 426.25 365.45938Q425.75 366.05313 425.75 367.19376Z" fill-rule="nonzero"/><path fill="#000000" d="M468.78815 363.86563L467.74127 363.94376Q467.60065 363.31876 467.35065 363.0375Q466.91315 362.58438 466.28815 362.58438Q465.78815 362.58438 465.39752 362.86563Q464.91315 363.24063 464.61627 363.94376Q464.33502 364.63126 464.3194 365.9125Q464.6944 365.33438 465.24127 365.05313Q465.80377 364.77188 466.41315 364.77188Q467.46002 364.77188 468.1944 365.55313Q468.9444 366.33438 468.9444 367.55313Q468.9444 368.36563 468.58502 369.06876Q468.24127 369.75626 467.6319 370.13126Q467.02252 370.49063 466.2569 370.49063Q464.92877 370.49063 464.10065 369.52188Q463.27252 368.55313 463.27252 366.33438Q463.27252 363.83438 464.1944 362.70938Q464.99127 361.725 466.35065 361.725Q467.36627 361.725 468.0069 362.30313Q468.66315 362.86563 468.78815 363.86563ZM464.49127 367.56876Q464.49127 368.11563 464.71002 368.61563Q464.9444 369.1 465.35065 369.36563Q465.77252 369.63126 466.24127 369.63126Q466.89752 369.63126 467.3819 369.1Q467.86627 368.55313 467.86627 367.63126Q467.86627 366.74063 467.3819 366.225Q466.91315 365.70938 466.1944 365.70938Q465.47565 365.70938 464.97565 366.225Q464.49127 366.74063 464.49127 367.56876ZM473.6944 370.35L473.6944 368.2875L469.97565 368.2875L469.97565 367.31876L473.89752 361.75626L474.7569 361.75626L474.7569 367.31876L475.91315 367.31876L475.91315 368.2875L474.7569 368.2875L474.7569 370.35L473.6944 370.35ZM473.6944 367.31876L473.6944 363.45938L471.0069 367.31876L473.6944 367.31876ZM480.61627 370.35L480.61627 361.75626L481.67877 361.75626L481.67877 366.6625L484.16315 364.13126L485.53815 364.13126L483.14752 366.42813L485.77252 370.35L484.47565 370.35L482.41315 367.1625L481.67877 367.88126L481.67877 370.35L480.61627 370.35ZM486.61627 362.975L486.61627 361.75626L487.67877 361.75626L487.67877 362.975L486.61627 362.975ZM486.61627 370.35L486.61627 364.13126L487.67877 364.13126L487.67877 370.35L486.61627 370.35ZM490.58502 370.35L489.60065 370.35L489.60065 361.75626L490.66315 361.75626L490.66315 364.81876Q491.33502 363.99063 492.36627 363.99063Q492.9444 363.99063 493.4444 364.225Q493.96002 364.44376 494.28815 364.86563Q494.6319 365.2875 494.8194 365.88126Q495.0069 366.475 495.0069 367.14688Q495.0069 368.74063 494.21002 369.61563Q493.41315 370.49063 492.3194 370.49063Q491.21002 370.49063 490.58502 369.56876L490.58502 370.35ZM490.5694 367.19376Q490.5694 368.30313 490.8819 368.80313Q491.3819 369.61563 492.22565 369.61563Q492.91315 369.61563 493.41315 369.02188Q493.92877 368.42813 493.92877 367.225Q493.92877 366.00626 493.4444 365.42813Q492.96002 364.85 492.27252 364.85Q491.58502 364.85 491.0694 365.45938Q490.5694 366.05313 490.5694 367.19376Z" fill-rule="nonzero"/><path fill="#000000" d="M528.60754 370.35L527.56067 370.35L527.56067 363.63126Q527.17004 363.99063 526.54504 364.36563Q525.93567 364.725 525.4513 364.89688L525.4513 363.88126Q526.3263 363.45938 526.98254 362.88126Q527.6544 362.2875 527.93567 361.725L528.60754 361.725L528.60754 370.35ZM537.18567 369.33438L537.18567 370.35L531.49817 370.35Q531.49817 369.975 531.62317 369.61563Q531.8419 369.0375 532.31067 368.475Q532.79504 367.9125 533.7013 367.17813Q535.10754 366.02188 535.5919 365.35Q536.0919 364.67813 536.0919 364.08438Q536.0919 363.45938 535.6388 363.0375Q535.18567 362.6 534.4669 362.6Q533.7013 362.6 533.24817 363.05313Q532.79504 363.50626 532.7794 364.31876L531.7013 364.20938Q531.81067 362.99063 532.5294 362.36563Q533.2638 361.725 534.49817 361.725Q535.73254 361.725 536.4513 362.4125Q537.17004 363.1 537.17004 364.11563Q537.17004 364.63126 536.9513 365.13126Q536.74817 365.61563 536.24817 366.17813Q535.7638 366.725 534.6388 367.67813Q533.68567 368.475 533.4044 368.77188Q533.1388 369.05313 532.9669 369.33438L537.18567 369.33438ZM540.2638 365.69376Q539.60754 365.44376 539.2794 365.00626Q538.9669 364.55313 538.9669 363.94376Q538.9669 363.00626 539.6388 362.36563Q540.3263 361.725 541.43567 361.725Q542.56067 361.725 543.24817 362.38126Q543.93567 363.0375 543.93567 363.975Q543.93567 364.56876 543.62317 365.00626Q543.31067 365.44376 542.67004 365.69376Q543.4669 365.94376 543.87317 366.52188Q544.2794 367.1 544.2794 367.89688Q544.2794 368.99063 543.49817 369.74063Q542.73254 370.49063 541.4513 370.49063Q540.18567 370.49063 539.4044 369.74063Q538.62317 368.99063 538.62317 367.86563Q538.62317 367.02188 539.04504 366.45938Q539.48254 365.89688 540.2638 365.69376ZM540.04504 363.89688Q540.04504 364.50626 540.43567 364.89688Q540.8419 365.2875 541.4669 365.2875Q542.0763 365.2875 542.4669 364.9125Q542.85754 364.52188 542.85754 363.95938Q542.85754 363.38126 542.4513 362.99063Q542.04504 362.58438 541.4513 362.58438Q540.8419 362.58438 540.43567 362.975Q540.04504 363.36563 540.04504 363.89688ZM539.7169 367.86563Q539.7169 368.31876 539.92004 368.74063Q540.1388 369.1625 540.56067 369.39688Q540.98254 369.63126 541.4669 369.63126Q542.2169 369.63126 542.7013 369.14688Q543.2013 368.6625 543.2013 367.9125Q543.2013 367.14688 542.7013 366.64688Q542.2013 366.14688 541.43567 366.14688Q540.68567 366.14688 540.2013 366.64688Q539.7169 367.13126 539.7169 367.86563ZM548.93567 370.35L548.93567 361.75626L549.99817 361.75626L549.99817 366.6625L552.48254 364.13126L553.85754 364.13126L551.4669 366.42813L554.0919 370.35L552.79504 370.35L550.73254 367.1625L549.99817 367.88126L549.99817 370.35L548.93567 370.35ZM554.93567 362.975L554.93567 361.75626L555.99817 361.75626L555.99817 362.975L554.93567 362.975ZM554.93567 370.35L554.93567 364.13126L555.99817 364.13126L555.99817 370.35L554.93567 370.35ZM558.9044 370.35L557.92004 370.35L557.92004 361.75626L558.98254 361.75626L558.98254 364.81876Q559.6544 363.99063 560.68567 363.99063Q561.2638 363.99063 561.7638 364.225Q562.2794 364.44376 562.60754 364.86563Q562.9513 365.2875 563.1388 365.88126Q563.3263 366.475 563.3263 367.14688Q563.3263 368.74063 562.5294 369.61563Q561.73254 370.49063 560.6388 370.49063Q559.5294 370.49063 558.9044 369.56876L558.9044 370.35ZM558.8888 367.19376Q558.8888 368.30313 559.2013 368.80313Q559.7013 369.61563 560.54504 369.61563Q561.23254 369.61563 561.73254 369.02188Q562.24817 368.42813 562.24817 367.225Q562.24817 366.00626 561.7638 365.42813Q561.2794 364.85 560.5919 364.85Q559.9044 364.85 559.3888 365.45938Q558.8888 366.05313 558.8888 367.19376Z" fill-rule="nonzero"/><path fill="#000000" d="M595.005 369.33438L595.005 370.35L589.3175 370.35Q589.3175 369.975 589.4425 369.61563Q589.66125 369.0375 590.13 368.475Q590.6144 367.9125 591.5206 367.17813Q592.9269 366.02188 593.41125 365.35Q593.91125 364.67813 593.91125 364.08438Q593.91125 363.45938 593.4581 363.0375Q593.005 362.6 592.28625 362.6Q591.5206 362.6 591.0675 363.05313Q590.6144 363.50626 590.59875 364.31876L589.5206 364.20938Q589.63 362.99063 590.34875 362.36563Q591.0831 361.725 592.3175 361.725Q593.5519 361.725 594.2706 362.4125Q594.9894 363.1 594.9894 364.11563Q594.9894 364.63126 594.7706 365.13126Q594.5675 365.61563 594.0675 366.17813Q593.5831 366.725 592.4581 367.67813Q591.505 368.475 591.22375 368.77188Q590.9581 369.05313 590.78625 369.33438L595.005 369.33438ZM596.4581 368.1L597.5675 368.00626Q597.6925 368.81876 598.13 369.225Q598.5831 369.63126 599.22375 369.63126Q599.97375 369.63126 600.505 369.05313Q601.03625 368.475 601.03625 367.5375Q601.03625 366.63126 600.5206 366.11563Q600.0206 365.58438 599.1925 365.58438Q598.6925 365.58438 598.2706 365.81876Q597.8644 366.05313 597.63 366.4125L596.6456 366.2875L597.47375 361.88126L601.755 361.88126L601.755 362.88126L598.3175 362.88126L597.8644 365.19376Q598.63 364.64688 599.47375 364.64688Q600.59875 364.64688 601.3644 365.42813Q602.1456 366.20938 602.1456 367.44376Q602.1456 368.6 601.47375 369.45938Q600.6456 370.49063 599.22375 370.49063Q598.0519 370.49063 597.3019 369.83438Q596.5675 369.17813 596.4581 368.1ZM608.9269 363.86563L607.88 363.94376Q607.7394 363.31876 607.4894 363.0375Q607.0519 362.58438 606.4269 362.58438Q605.9269 362.58438 605.53625 362.86563Q605.0519 363.24063 604.755 363.94376Q604.47375 364.63126 604.4581 365.9125Q604.8331 365.33438 605.38 365.05313Q605.9425 364.77188 606.5519 364.77188Q607.59875 364.77188 608.3331 365.55313Q609.0831 366.33438 609.0831 367.55313Q609.0831 368.36563 608.72375 369.06876Q608.38 369.75626 607.7706 370.13126Q607.16125 370.49063 606.3956 370.49063Q605.0675 370.49063 604.2394 369.52188Q603.41125 368.55313 603.41125 366.33438Q603.41125 363.83438 604.3331 362.70938Q605.13 361.725 606.4894 361.725Q607.505 361.725 608.1456 362.30313Q608.8019 362.86563 608.9269 363.86563ZM604.63 367.56876Q604.63 368.11563 604.84875 368.61563Q605.0831 369.1 605.4894 369.36563Q605.91125 369.63126 606.38 369.63126Q607.03625 369.63126 607.5206 369.1Q608.005 368.55313 608.005 367.63126Q608.005 366.74063 607.5206 366.225Q607.0519 365.70938 606.3331 365.70938Q605.6144 365.70938 605.1144 366.225Q604.63 366.74063 604.63 367.56876ZM613.755 370.35L613.755 361.75626L614.8175 361.75626L614.8175 366.6625L617.3019 364.13126L618.6769 364.13126L616.28625 366.42813L618.91125 370.35L617.6144 370.35L615.5519 367.1625L614.8175 367.88126L614.8175 370.35L613.755 370.35ZM619.755 362.975L619.755 361.75626L620.8175 361.75626L620.8175 362.975L619.755 362.975ZM619.755 370.35L619.755 364.13126L620.8175 364.13126L620.8175 370.35L619.755 370.35ZM623.72375 370.35L622.7394 370.35L622.7394 361.75626L623.8019 361.75626L623.8019 364.81876Q624.47375 363.99063 625.505 363.99063Q626.0831 363.99063 626.5831 364.225Q627.09875 364.44376 627.4269 364.86563Q627.7706 365.2875 627.9581 365.88126Q628.1456 366.475 628.1456 367.14688Q628.1456 368.74063 627.34875 369.61563Q626.5519 370.49063 625.4581 370.49063Q624.34875 370.49063 623.72375 369.56876L623.72375 370.35ZM623.7081 367.19376Q623.7081 368.30313 624.0206 368.80313Q624.5206 369.61563 625.3644 369.61563Q626.0519 369.61563 626.5519 369.02188Q627.0675 368.42813 627.0675 367.225Q627.0675 366.00626 626.5831 365.42813Q626.09875 364.85 625.41125 364.85Q624.72375 364.85 624.2081 365.45938Q623.7081 366.05313 623.7081 367.19376Z" fill-rule="nonzero"/><path fill="#000000" d="M654.2775 368.1L655.3869 368.00626Q655.5119 368.81876 655.9494 369.225Q656.4025 369.63126 657.04315 369.63126Q657.79315 369.63126 658.3244 369.05313Q658.85565 368.475 658.85565 367.5375Q658.85565 366.63126 658.34 366.11563Q657.84 365.58438 657.0119 365.58438Q656.5119 365.58438 656.09 365.81876Q655.6838 366.05313 655.4494 366.4125L654.465 366.2875L655.29315 361.88126L659.5744 361.88126L659.5744 362.88126L656.1369 362.88126L655.6838 365.19376Q656.4494 364.64688 657.29315 364.64688Q658.41815 364.64688 659.1838 365.42813Q659.965 366.20938 659.965 367.44376Q659.965 368.6 659.29315 369.45938Q658.465 370.49063 657.04315 370.49063Q655.8713 370.49063 655.1213 369.83438Q654.3869 369.17813 654.2775 368.1ZM665.2463 370.35L664.1994 370.35L664.1994 363.63126Q663.8088 363.99063 663.1838 364.36563Q662.5744 364.725 662.09 364.89688L662.09 363.88126Q662.965 363.45938 663.6213 362.88126Q664.29315 362.2875 664.5744 361.725L665.2463 361.725L665.2463 370.35ZM673.8244 369.33438L673.8244 370.35L668.1369 370.35Q668.1369 369.975 668.2619 369.61563Q668.48065 369.0375 668.9494 368.475Q669.4338 367.9125 670.34 367.17813Q671.7463 366.02188 672.23065 365.35Q672.73065 364.67813 672.73065 364.08438Q672.73065 363.45938 672.2775 363.0375Q671.8244 362.6 671.10565 362.6Q670.34 362.6 669.8869 363.05313Q669.4338 363.50626 669.41815 364.31876L668.34 364.20938Q668.4494 362.99063 669.16815 362.36563Q669.9025 361.725 671.1369 361.725Q672.3713 361.725 673.09 362.4125Q673.8088 363.1 673.8088 364.11563Q673.8088 364.63126 673.59 365.13126Q673.3869 365.61563 672.8869 366.17813Q672.4025 366.725 671.2775 367.67813Q670.3244 368.475 670.04315 368.77188Q669.7775 369.05313 669.60565 369.33438L673.8244 369.33438ZM678.5744 370.35L678.5744 361.75626L679.6369 361.75626L679.6369 366.6625L682.1213 364.13126L683.4963 364.13126L681.10565 366.42813L683.73065 370.35L682.4338 370.35L680.3713 367.1625L679.6369 367.88126L679.6369 370.35L678.5744 370.35ZM684.5744 362.975L684.5744 361.75626L685.6369 361.75626L685.6369 362.975L684.5744 362.975ZM684.5744 370.35L684.5744 364.13126L685.6369 364.13126L685.6369 370.35L684.5744 370.35ZM688.54315 370.35L687.5588 370.35L687.5588 361.75626L688.6213 361.75626L688.6213 364.81876Q689.29315 363.99063 690.3244 363.99063Q690.9025 363.99063 691.4025 364.225Q691.91815 364.44376 692.2463 364.86563Q692.59 365.2875 692.7775 365.88126Q692.965 366.475 692.965 367.14688Q692.965 368.74063 692.16815 369.61563Q691.3713 370.49063 690.2775 370.49063Q689.16815 370.49063 688.54315 369.56876L688.54315 370.35ZM688.5275 367.19376Q688.5275 368.30313 688.84 368.80313Q689.34 369.61563 690.1838 369.61563Q690.8713 369.61563 691.3713 369.02188Q691.8869 368.42813 691.8869 367.225Q691.8869 366.00626 691.4025 365.42813Q690.91815 364.85 690.23065 364.85Q689.54315 364.85 689.0275 365.45938Q688.5275 366.05313 688.5275 367.19376Z" fill-rule="nonzero"/><path fill="#000000" d="M719.5657 370.35L718.5188 370.35L718.5188 363.63126Q718.1282 363.99063 717.5032 364.36563Q716.8938 364.725 716.4094 364.89688L716.4094 363.88126Q717.2844 363.45938 717.9407 362.88126Q718.61255 362.2875 718.8938 361.725L719.5657 361.725L719.5657 370.35ZM722.5969 366.11563Q722.5969 364.58438 722.9094 363.6625Q723.2219 362.725 723.8313 362.225Q724.4563 361.725 725.3938 361.725Q726.0813 361.725 726.5969 362.00626Q727.1282 362.2875 727.4719 362.81876Q727.8157 363.33438 728.0032 364.08438Q728.1907 364.83438 728.1907 366.11563Q728.1907 367.63126 727.8782 368.55313Q727.5813 369.475 726.9563 369.99063Q726.3469 370.49063 725.3938 370.49063Q724.1594 370.49063 723.4407 369.6Q722.5969 368.5375 722.5969 366.11563ZM723.67505 366.11563Q723.67505 368.225 724.17505 368.92813Q724.67505 369.63126 725.3938 369.63126Q726.1282 369.63126 726.61255 368.92813Q727.11255 368.225 727.11255 366.11563Q727.11255 363.99063 726.61255 363.30313Q726.1282 362.6 725.3782 362.6Q724.6594 362.6 724.2219 363.20938Q723.67505 363.99063 723.67505 366.11563ZM735.1438 369.33438L735.1438 370.35L729.4563 370.35Q729.4563 369.975 729.5813 369.61563Q729.80005 369.0375 730.2688 368.475Q730.7532 367.9125 731.6594 367.17813Q733.0657 366.02188 733.55005 365.35Q734.05005 364.67813 734.05005 364.08438Q734.05005 363.45938 733.5969 363.0375Q733.1438 362.6 732.42505 362.6Q731.6594 362.6 731.2063 363.05313Q730.7532 363.50626 730.73755 364.31876L729.6594 364.20938Q729.7688 362.99063 730.48755 362.36563Q731.2219 361.725 732.4563 361.725Q733.6907 361.725 734.4094 362.4125Q735.1282 363.1 735.1282 364.11563Q735.1282 364.63126 734.9094 365.13126Q734.7063 365.61563 734.2063 366.17813Q733.7219 366.725 732.5969 367.67813Q731.6438 368.475 731.36255 368.77188Q731.0969 369.05313 730.92505 369.33438L735.1438 369.33438ZM739.9719 370.35L739.9719 368.2875L736.2532 368.2875L736.2532 367.31876L740.17505 361.75626L741.0344 361.75626L741.0344 367.31876L742.1907 367.31876L742.1907 368.2875L741.0344 368.2875L741.0344 370.35L739.9719 370.35ZM739.9719 367.31876L739.9719 363.45938L737.2844 367.31876L739.9719 367.31876ZM746.8938 370.35L746.8938 361.75626L747.9563 361.75626L747.9563 366.6625L750.4407 364.13126L751.8157 364.13126L749.42505 366.42813L752.05005 370.35L750.7532 370.35L748.6907 367.1625L747.9563 367.88126L747.9563 370.35L746.8938 370.35ZM752.8938 362.975L752.8938 361.75626L753.9563 361.75626L753.9563 362.975L752.8938 362.975ZM752.8938 370.35L752.8938 364.13126L753.9563 364.13126L753.9563 370.35L752.8938 370.35ZM756.86255 370.35L755.8782 370.35L755.8782 361.75626L756.9407 361.75626L756.9407 364.81876Q757.61255 363.99063 758.6438 363.99063Q759.2219 363.99063 759.7219 364.225Q760.23755 364.44376 760.5657 364.86563Q760.9094 365.2875 761.0969 365.88126Q761.2844 366.475 761.2844 367.14688Q761.2844 368.74063 760.48755 369.61563Q759.6907 370.49063 758.5969 370.49063Q757.48755 370.49063 756.86255 369.56876L756.86255 370.35ZM756.8469 367.19376Q756.8469 368.30313 757.1594 368.80313Q757.6594 369.61563 758.5032 369.61563Q759.1907 369.61563 759.6907 369.02188Q760.2063 368.42813 760.2063 367.225Q760.2063 366.00626 759.7219 365.42813Q759.23755 364.85 758.55005 364.85Q757.86255 364.85 757.3469 365.45938Q756.8469 366.05313 756.8469 367.19376Z" fill-rule="nonzero"/><path fill="#9fc5e8" d="M293.66998 44.85283C293.66998 44.300545 294.1177 43.85283 294.66998 43.85283L304.66998 43.85283C305.22226 43.85283 305.66998 44.300545 305.66998 44.85283L305.66998 54.85283C305.66998 55.405113 305.22226 55.85283 304.66998 55.85283L294.66998 55.85283C294.1177 55.85283 293.66998 55.405113 293.66998 54.85283Z" fill-rule="nonzero"/><path fill="#1a1a1a" d="M318.6231 50.47783L318.6231 49.47783L322.2481 49.462204L322.2481 52.649704Q321.41998 53.32158 320.52936 53.66533Q319.63873 53.993454 318.70123 53.993454Q317.4356 53.993454 316.38873 53.462204Q315.35748 52.91533 314.82623 51.899704Q314.3106 50.868454 314.3106 49.60283Q314.3106 48.337204 314.82623 47.25908Q315.35748 46.16533 316.34186 45.649704Q317.32623 45.118454 318.60748 45.118454Q319.54498 45.118454 320.29498 45.41533Q321.04498 45.712204 321.46686 46.25908Q321.90436 46.79033 322.1231 47.66533L321.10748 47.94658Q320.90436 47.29033 320.60748 46.91533Q320.32623 46.54033 319.79498 46.32158Q319.26373 46.087204 318.6231 46.087204Q317.84186 46.087204 317.26373 46.32158Q316.70123 46.555954 316.34186 46.94658Q315.9981 47.337204 315.8106 47.805954Q315.48248 48.60283 315.48248 49.524704Q315.48248 50.680954 315.8731 51.462204Q316.27936 52.22783 317.02936 52.60283Q317.77936 52.97783 318.63873 52.97783Q319.3731 52.97783 320.07623 52.69658Q320.77936 52.399704 321.13873 52.087204L321.13873 50.47783L318.6231 50.47783ZM323.07623 50.743454Q323.07623 49.00908 324.02936 48.180954Q324.82623 47.493454 325.98248 47.493454Q327.26373 47.493454 328.07623 48.337204Q328.90436 49.16533 328.90436 50.649704Q328.90436 51.85283 328.54498 52.54033Q328.1856 53.22783 327.48248 53.618454Q326.79498 53.993454 325.98248 53.993454Q324.6856 53.993454 323.8731 53.16533Q323.07623 52.32158 323.07623 50.743454ZM324.15436 50.743454Q324.15436 51.930954 324.66998 52.524704Q325.20123 53.118454 325.98248 53.118454Q326.77936 53.118454 327.29498 52.524704Q327.8106 51.930954 327.8106 50.712204Q327.8106 49.555954 327.27936 48.962204Q326.76373 48.368454 325.98248 48.368454Q325.20123 48.368454 324.66998 48.962204Q324.15436 49.54033 324.15436 50.743454Z" fill-rule="nonzero"/><path fill="#0b5394" d="M345.66998 44.85283C345.66998 44.300545 346.1177 43.85283 346.66998 43.85283L356.66998 43.85283C357.22226 43.85283 357.66998 44.300545 357.66998 44.85283L357.66998 54.85283C357.66998 55.405113 357.22226 55.85283 356.66998 55.85283L346.66998 55.85283C346.1177 55.85283 345.66998 55.405113 345.66998 54.85283Z" fill-rule="nonzero"/><path fill="#1a1a1a" d="M370.6231 50.47783L370.6231 49.47783L374.2481 49.462204L374.2481 52.649704Q373.41998 53.32158 372.52936 53.66533Q371.63873 53.993454 370.70123 53.993454Q369.4356 53.993454 368.38873 53.462204Q367.35748 52.91533 366.82623 51.899704Q366.3106 50.868454 366.3106 49.60283Q366.3106 48.337204 366.82623 47.25908Q367.35748 46.16533 368.34186 45.649704Q369.32623 45.118454 370.60748 45.118454Q371.54498 45.118454 372.29498 45.41533Q373.04498 45.712204 373.46686 46.25908Q373.90436 46.79033 374.1231 47.66533L373.10748 47.94658Q372.90436 47.29033 372.60748 46.91533Q372.32623 46.54033 371.79498 46.32158Q371.26373 46.087204 370.6231 46.087204Q369.84186 46.087204 369.26373 46.32158Q368.70123 46.555954 368.34186 46.94658Q367.9981 47.337204 367.8106 47.805954Q367.48248 48.60283 367.48248 49.524704Q367.48248 50.680954 367.8731 51.462204Q368.27936 52.22783 369.02936 52.60283Q369.77936 52.97783 370.63873 52.97783Q371.3731 52.97783 372.07623 52.69658Q372.77936 52.399704 373.13873 52.087204L373.13873 50.47783L370.6231 50.47783ZM375.07623 50.743454Q375.07623 49.00908 376.02936 48.180954Q376.82623 47.493454 377.98248 47.493454Q379.26373 47.493454 380.07623 48.337204Q380.90436 49.16533 380.90436 50.649704Q380.90436 51.85283 380.54498 52.54033Q380.1856 53.22783 379.48248 53.618454Q378.79498 53.993454 377.98248 53.993454Q376.6856 53.993454 375.8731 53.16533Q375.07623 52.32158 375.07623 50.743454ZM376.15436 50.743454Q376.15436 51.930954 376.66998 52.524704Q377.20123 53.118454 377.98248 53.118454Q378.77936 53.118454 379.29498 52.524704Q379.8106 51.930954 379.8106 50.712204Q379.8106 49.555954 379.27936 48.962204Q378.76373 48.368454 377.98248 48.368454Q377.20123 48.368454 376.66998 48.962204Q376.15436 49.54033 376.15436 50.743454ZM387.48248 56.38408Q386.60748 55.274704 385.9981 53.805954Q385.40436 52.32158 385.40436 50.743454Q385.40436 49.35283 385.84186 48.07158Q386.3731 46.587204 387.48248 45.118454L388.23248 45.118454Q387.52936 46.337204 387.29498 46.85283Q386.9356 47.66533 386.73248 48.54033Q386.48248 49.63408 386.48248 50.743454Q386.48248 53.57158 388.23248 56.38408L387.48248 56.38408ZM389.60748 53.85283L389.60748 45.25908L393.41998 45.25908Q394.57623 45.25908 395.16998 45.493454Q395.76373 45.72783 396.1231 46.32158Q396.48248 46.899704 396.48248 47.60283Q396.48248 48.524704 395.88873 49.149704Q395.29498 49.774704 394.0606 49.94658Q394.51373 50.16533 394.7481 50.368454Q395.2481 50.82158 395.6856 51.50908L397.1856 53.85283L395.7481 53.85283L394.6231 52.07158Q394.1231 51.29033 393.79498 50.88408Q393.48248 50.47783 393.21686 50.32158Q392.96686 50.149704 392.70123 50.07158Q392.51373 50.04033 392.07623 50.04033L390.7481 50.04033L390.7481 53.85283L389.60748 53.85283ZM390.7481 49.055954L393.20123 49.055954Q393.96686 49.055954 394.40436 48.899704Q394.85748 48.72783 395.07623 48.38408Q395.3106 48.024704 395.3106 47.60283Q395.3106 46.993454 394.85748 46.60283Q394.41998 46.212204 393.46686 46.212204L390.7481 46.212204L390.7481 49.055954ZM402.71686 51.85283L403.8106 51.97783Q403.5606 52.930954 402.85748 53.462204Q402.15436 53.993454 401.07623 53.993454Q399.71686 53.993454 398.90436 53.149704Q398.10748 52.305954 398.10748 50.79033Q398.10748 49.22783 398.91998 48.368454Q399.73248 47.493454 401.01373 47.493454Q402.26373 47.493454 403.04498 48.337204Q403.84186 49.180954 403.84186 50.72783Q403.84186 50.82158 403.84186 51.00908L399.20123 51.00908Q399.26373 52.04033 399.77936 52.587204Q400.29498 53.118454 401.07623 53.118454Q401.65436 53.118454 402.0606 52.82158Q402.48248 52.50908 402.71686 51.85283ZM399.26373 50.149704L402.73248 50.149704Q402.66998 49.35283 402.34186 48.962204Q401.82623 48.35283 401.02936 48.35283Q400.29498 48.35283 399.79498 48.837204Q399.3106 49.32158 399.26373 50.149704ZM405.04498 51.993454L406.07623 51.837204Q406.16998 52.462204 406.5606 52.79033Q406.96686 53.118454 407.70123 53.118454Q408.41998 53.118454 408.76373 52.837204Q409.1231 52.54033 409.1231 52.13408Q409.1231 51.774704 408.8106 51.57158Q408.59186 51.430954 407.73248 51.212204Q406.57623 50.91533 406.1231 50.712204Q405.6856 50.493454 405.45123 50.118454Q405.21686 49.743454 405.21686 49.274704Q405.21686 48.868454 405.40436 48.50908Q405.59186 48.149704 405.91998 47.91533Q406.16998 47.743454 406.59186 47.618454Q407.01373 47.493454 407.51373 47.493454Q408.23248 47.493454 408.77936 47.712204Q409.34186 47.91533 409.60748 48.274704Q409.8731 48.63408 409.96686 49.22783L408.9356 49.368454Q408.8731 48.899704 408.52936 48.63408Q408.20123 48.35283 407.57623 48.35283Q406.85748 48.35283 406.54498 48.60283Q406.23248 48.837204 406.23248 49.16533Q406.23248 49.368454 406.35748 49.524704Q406.4981 49.69658 406.76373 49.805954Q406.91998 49.868454 407.70123 50.07158Q408.82623 50.38408 409.26373 50.57158Q409.70123 50.75908 409.95123 51.118454Q410.20123 51.47783 410.20123 52.024704Q410.20123 52.555954 409.88873 53.024704Q409.59186 53.47783 409.01373 53.743454Q408.4356 53.993454 407.70123 53.993454Q406.48248 53.993454 405.84186 53.493454Q405.21686 52.97783 405.04498 51.993454ZM415.71686 51.85283L416.8106 51.97783Q416.5606 52.930954 415.85748 53.462204Q415.15436 53.993454 414.07623 53.993454Q412.71686 53.993454 411.90436 53.149704Q411.10748 52.305954 411.10748 50.79033Q411.10748 49.22783 411.91998 48.368454Q412.73248 47.493454 414.01373 47.493454Q415.26373 47.493454 416.04498 48.337204Q416.84186 49.180954 416.84186 50.72783Q416.84186 50.82158 416.84186 51.00908L412.20123 51.00908Q412.26373 52.04033 412.77936 52.587204Q413.29498 53.118454 414.07623 53.118454Q414.65436 53.118454 415.0606 52.82158Q415.48248 52.50908 415.71686 51.85283ZM412.26373 50.149704L415.73248 50.149704Q415.66998 49.35283 415.34186 48.962204Q414.82623 48.35283 414.02936 48.35283Q413.29498 48.35283 412.79498 48.837204Q412.3106 49.32158 412.26373 50.149704ZM420.76373 52.91533L420.91998 53.837204Q420.46686 53.930954 420.1231 53.930954Q419.54498 53.930954 419.23248 53.75908Q418.91998 53.57158 418.77936 53.274704Q418.65436 52.97783 418.65436 52.024704L418.65436 48.44658L417.88873 48.44658L417.88873 47.63408L418.65436 47.63408L418.65436 46.087204L419.70123 45.462204L419.70123 47.63408L420.76373 47.63408L420.76373 48.44658L419.70123 48.44658L419.70123 52.087204Q419.70123 52.54033 419.7481 52.66533Q419.8106 52.79033 419.9356 52.868454Q420.0606 52.94658 420.29498 52.94658Q420.48248 52.94658 420.76373 52.91533ZM422.15436 56.38408L421.40436 56.38408Q423.15436 53.57158 423.15436 50.743454Q423.15436 49.649704 422.90436 48.555954Q422.70123 47.680954 422.34186 46.868454Q422.10748 46.35283 421.40436 45.118454L422.15436 45.118454Q423.2481 46.587204 423.77936 48.07158Q424.23248 49.35283 424.23248 50.743454Q424.23248 52.32158 423.6231 53.805954Q423.01373 55.274704 422.15436 56.38408Z" fill-rule="nonzero"/><path fill="#990000" d="M440.66998 44.85283C440.66998 44.300545 441.1177 43.85283 441.66998 43.85283L451.66998 43.85283C452.22226 43.85283 452.66998 44.300545 452.66998 44.85283L452.66998 54.85283C452.66998 55.405113 452.22226 55.85283 451.66998 55.85283L441.66998 55.85283C441.1177 55.85283 440.66998 55.405113 440.66998 54.85283Z" fill-rule="nonzero"/><path fill="#1a1a1a" d="M461.60748 53.85283L461.60748 45.25908L465.41998 45.25908Q466.57623 45.25908 467.16998 45.493454Q467.76373 45.72783 468.1231 46.32158Q468.48248 46.899704 468.48248 47.60283Q468.48248 48.524704 467.88873 49.149704Q467.29498 49.774704 466.0606 49.94658Q466.51373 50.16533 466.7481 50.368454Q467.2481 50.82158 467.6856 51.50908L469.1856 53.85283L467.7481 53.85283L466.6231 52.07158Q466.1231 51.29033 465.79498 50.88408Q465.48248 50.47783 465.21686 50.32158Q464.96686 50.149704 464.70123 50.07158Q464.51373 50.04033 464.07623 50.04033L462.7481 50.04033L462.7481 53.85283L461.60748 53.85283ZM462.7481 49.055954L465.20123 49.055954Q465.96686 49.055954 466.40436 48.899704Q466.85748 48.72783 467.07623 48.38408Q467.3106 48.024704 467.3106 47.60283Q467.3106 46.993454 466.85748 46.60283Q466.41998 46.212204 465.46686 46.212204L462.7481 46.212204L462.7481 49.055954ZM474.54498 53.85283L474.54498 52.930954Q473.8106 53.993454 472.5606 53.993454Q472.01373 53.993454 471.52936 53.79033Q471.0606 53.57158 470.82623 53.25908Q470.59186 52.930954 470.4981 52.462204Q470.4356 52.16533 470.4356 51.47783L470.4356 47.63408L471.4981 47.63408L471.4981 51.087204Q471.4981 51.899704 471.5606 52.19658Q471.65436 52.60283 471.96686 52.85283Q472.29498 53.087204 472.77936 53.087204Q473.2481 53.087204 473.65436 52.85283Q474.07623 52.60283 474.2481 52.180954Q474.4356 51.75908 474.4356 50.962204L474.4356 47.63408L475.48248 47.63408L475.48248 53.85283L474.54498 53.85283ZM477.04498 51.993454L478.07623 51.837204Q478.16998 52.462204 478.5606 52.79033Q478.96686 53.118454 479.70123 53.118454Q480.41998 53.118454 480.76373 52.837204Q481.1231 52.54033 481.1231 52.13408Q481.1231 51.774704 480.8106 51.57158Q480.59186 51.430954 479.73248 51.212204Q478.57623 50.91533 478.1231 50.712204Q477.6856 50.493454 477.45123 50.118454Q477.21686 49.743454 477.21686 49.274704Q477.21686 48.868454 477.40436 48.50908Q477.59186 48.149704 477.91998 47.91533Q478.16998 47.743454 478.59186 47.618454Q479.01373 47.493454 479.51373 47.493454Q480.23248 47.493454 480.77936 47.712204Q481.34186 47.91533 481.60748 48.274704Q481.8731 48.63408 481.96686 49.22783L480.9356 49.368454Q480.8731 48.899704 480.52936 48.63408Q480.20123 48.35283 479.57623 48.35283Q478.85748 48.35283 478.54498 48.60283Q478.23248 48.837204 478.23248 49.16533Q478.23248 49.368454 478.35748 49.524704Q478.4981 49.69658 478.76373 49.805954Q478.91998 49.868454 479.70123 50.07158Q480.82623 50.38408 481.26373 50.57158Q481.70123 50.75908 481.95123 51.118454Q482.20123 51.47783 482.20123 52.024704Q482.20123 52.555954 481.88873 53.024704Q481.59186 53.47783 481.01373 53.743454Q480.4356 53.993454 479.70123 53.993454Q478.48248 53.993454 477.84186 53.493454Q477.21686 52.97783 477.04498 51.993454ZM485.76373 52.91533L485.91998 53.837204Q485.46686 53.930954 485.1231 53.930954Q484.54498 53.930954 484.23248 53.75908Q483.91998 53.57158 483.77936 53.274704Q483.65436 52.97783 483.65436 52.024704L483.65436 48.44658L482.88873 48.44658L482.88873 47.63408L483.65436 47.63408L483.65436 46.087204L484.70123 45.462204L484.70123 47.63408L485.76373 47.63408L485.76373 48.44658L484.70123 48.44658L484.70123 52.087204Q484.70123 52.54033 484.7481 52.66533Q484.8106 52.79033 484.9356 52.868454Q485.0606 52.94658 485.29498 52.94658Q485.48248 52.94658 485.76373 52.91533Z" fill-rule="nonzero"/><path fill="#757575" d="M21.259375 38.65L21.259375 24.337502L23.15 24.337502L23.15 30.212502L30.5875 30.212502L30.5875 24.337502L32.478127 24.337502L32.478127 38.65L30.5875 38.65L30.5875 31.900002L23.15 31.900002L23.15 38.65L21.259375 38.65ZM41.74375 37.36875Q40.759377 38.196877 39.853127 38.540627Q38.946877 38.884377 37.915627 38.884377Q36.2125 38.884377 35.290627 38.05625Q34.36875 37.2125 34.36875 35.915627Q34.36875 35.15 34.7125 34.525Q35.071877 33.9 35.634377 33.525Q36.196877 33.134377 36.9 32.93125Q37.415627 32.80625 38.4625 32.665627Q40.5875 32.415627 41.5875 32.071877Q41.603127 31.712502 41.603127 31.603127Q41.603127 30.540627 41.103127 30.087502Q40.43125 29.493752 39.103127 29.493752Q37.853127 29.493752 37.259377 29.931252Q36.68125 30.368752 36.4 31.478127L34.68125 31.243752Q34.915627 30.134377 35.446877 29.462502Q35.978127 28.775002 36.99375 28.415627Q38.009377 28.040627 39.353127 28.040627Q40.68125 28.040627 41.509377 28.353127Q42.3375 28.665627 42.728127 29.150002Q43.11875 29.618752 43.275 30.337502Q43.36875 30.790627 43.36875 31.962502L43.36875 34.30625Q43.36875 36.759377 43.478127 37.415627Q43.5875 38.05625 43.93125 38.65L42.0875 38.65Q41.821877 38.103127 41.74375 37.36875ZM41.5875 33.446877Q40.634377 33.8375 38.7125 34.103127Q37.634377 34.259377 37.18125 34.4625Q36.74375 34.65 36.49375 35.025Q36.24375 35.4 36.24375 35.86875Q36.24375 36.571877 36.775 37.040627Q37.30625 37.509377 38.3375 37.509377Q39.353127 37.509377 40.134377 37.071877Q40.93125 36.61875 41.30625 35.853127Q41.5875 35.24375 41.5875 34.0875L41.5875 33.446877ZM45.259377 35.55625L47.009377 35.275Q47.15 36.321877 47.821877 36.884377Q48.49375 37.43125 49.696877 37.43125Q50.9 37.43125 51.478127 36.946877Q52.071877 36.446877 52.071877 35.790627Q52.071877 35.196877 51.55625 34.853127Q51.196877 34.61875 49.759377 34.259377Q47.821877 33.759377 47.071877 33.415627Q46.3375 33.05625 45.946877 32.43125Q45.55625 31.790627 45.55625 31.025002Q45.55625 30.337502 45.86875 29.743752Q46.196877 29.150002 46.74375 28.759377Q47.15 28.462502 47.853127 28.259377Q48.571877 28.040627 49.384377 28.040627Q50.603127 28.040627 51.525 28.400002Q52.446877 28.743752 52.884377 29.353127Q53.321877 29.946877 53.49375 30.946877L51.775 31.181252Q51.65 30.384377 51.0875 29.946877Q50.525 29.493752 49.509377 29.493752Q48.290627 29.493752 47.775 29.900002Q47.259377 30.290627 47.259377 30.821877Q47.259377 31.165627 47.478127 31.446877Q47.68125 31.728127 48.15 31.915627Q48.415627 32.009377 49.696877 32.353127Q51.571877 32.853127 52.30625 33.18125Q53.040627 33.49375 53.4625 34.103127Q53.884377 34.696877 53.884377 35.603127Q53.884377 36.478127 53.36875 37.259377Q52.853127 38.040627 51.884377 38.4625Q50.915627 38.884377 49.696877 38.884377Q47.68125 38.884377 46.61875 38.040627Q45.55625 37.196877 45.259377 35.55625ZM55.9625 38.65L55.9625 24.337502L57.728127 24.337502L57.728127 29.462502Q58.9625 28.040627 60.8375 28.040627Q61.978127 28.040627 62.821877 28.493752Q63.68125 28.946877 64.04063 29.759377Q64.41563 30.556252 64.41563 32.071877L64.41563 38.65L62.665627 38.65L62.665627 32.071877Q62.665627 30.759377 62.0875 30.165627Q61.509377 29.556252 60.478127 29.556252Q59.696877 29.556252 58.99375 29.962502Q58.30625 30.368752 58.009377 31.071877Q57.728127 31.759377 57.728127 32.978127L57.728127 38.65L55.9625 38.65ZM66.97813 26.353127L66.97813 24.337502L68.74375 24.337502L68.74375 26.353127L66.97813 26.353127ZM66.97813 38.65L66.97813 28.275002L68.74375 28.275002L68.74375 38.65L66.97813 38.65ZM70.9625 38.65L70.9625 28.275002L72.55625 28.275002L72.55625 29.759377Q73.69688 28.040627 75.85313 28.040627Q76.79063 28.040627 77.57188 28.384377Q78.36875 28.712502 78.75938 29.259377Q79.15 29.806252 79.30625 30.556252Q79.4 31.056252 79.4 32.275L79.4 38.65L77.63438 38.65L77.63438 32.3375Q77.63438 31.259377 77.43125 30.728127Q77.22813 30.196877 76.69688 29.884377Q76.18125 29.571877 75.47813 29.571877Q74.35313 29.571877 73.54063 30.290627Q72.72813 30.993752 72.72813 32.978127L72.72813 38.65L70.9625 38.65ZM81.65 39.509377L83.35313 39.759377Q83.4625 40.55625 83.94688 40.915627Q84.60313 41.4 85.74375 41.4Q86.9625 41.4 87.61875 40.915627Q88.29063 40.43125 88.525 39.55625Q88.66563 39.009377 88.65 37.290627Q87.49375 38.65 85.775 38.65Q83.63438 38.65 82.4625 37.103127Q81.29063 35.55625 81.29063 33.4Q81.29063 31.915627 81.82188 30.665627Q82.36875 29.415627 83.38438 28.728127Q84.41563 28.040627 85.79063 28.040627Q87.61875 28.040627 88.82188 29.525002L88.82188 28.275002L90.43125 28.275002L90.43125 37.24375Q90.43125 39.665627 89.93125 40.665627Q89.44688 41.68125 88.36875 42.259377Q87.30625 42.853127 85.74375 42.853127Q83.9 42.853127 82.74375 42.025Q81.60313 41.196877 81.65 39.509377ZM83.10313 33.275Q83.10313 35.321877 83.91563 36.259377Q84.72813 37.196877 85.94688 37.196877Q87.15 37.196877 87.9625 36.259377Q88.79063 35.321877 88.79063 33.3375Q88.79063 31.431252 87.94688 30.462502Q87.10313 29.493752 85.91563 29.493752Q84.74375 29.493752 83.91563 30.446877Q83.10313 31.400002 83.10313 33.275ZM98.94688 38.65L98.94688 28.275002L100.525 28.275002L100.525 29.853127Q101.13438 28.743752 101.65 28.400002Q102.16563 28.040627 102.775 28.040627Q103.66563 28.040627 104.5875 28.603127L103.97813 30.243752Q103.3375 29.853127 102.69688 29.853127Q102.11875 29.853127 101.65 30.212502Q101.19688 30.556252 100.99375 31.165627Q100.7125 32.103127 100.7125 33.2125L100.7125 38.65L98.94688 38.65ZM112.74375 37.36875Q111.75938 38.196877 110.85313 38.540627Q109.94688 38.884377 108.91563 38.884377Q107.2125 38.884377 106.29063 38.05625Q105.36875 37.2125 105.36875 35.915627Q105.36875 35.15 105.7125 34.525Q106.07188 33.9 106.63438 33.525Q107.19688 33.134377 107.9 32.93125Q108.41563 32.80625 109.4625 32.665627Q111.5875 32.415627 112.5875 32.071877Q112.60313 31.712502 112.60313 31.603127Q112.60313 30.540627 112.10313 30.087502Q111.43125 29.493752 110.10313 29.493752Q108.85313 29.493752 108.25938 29.931252Q107.68125 30.368752 107.4 31.478127L105.68125 31.243752Q105.91563 30.134377 106.44688 29.462502Q106.97813 28.775002 107.99375 28.415627Q109.00938 28.040627 110.35313 28.040627Q111.68125 28.040627 112.50938 28.353127Q113.3375 28.665627 113.72813 29.150002Q114.11875 29.618752 114.275 30.337502Q114.36875 30.790627 114.36875 31.962502L114.36875 34.30625Q114.36875 36.759377 114.47813 37.415627Q114.5875 38.05625 114.93125 38.65L113.0875 38.65Q112.82188 38.103127 112.74375 37.36875ZM112.5875 33.446877Q111.63438 33.8375 109.7125 34.103127Q108.63438 34.259377 108.18125 34.4625Q107.74375 34.65 107.49375 35.025Q107.24375 35.4 107.24375 35.86875Q107.24375 36.571877 107.775 37.040627Q108.30625 37.509377 109.3375 37.509377Q110.35313 37.509377 111.13438 37.071877Q111.93125 36.61875 112.30625 35.853127Q112.5875 35.24375 112.5875 34.0875L112.5875 33.446877ZM120.80625 37.071877L121.05625 38.634377Q120.32188 38.790627 119.72813 38.790627Q118.775 38.790627 118.24375 38.49375Q117.72813 38.18125 117.50938 37.696877Q117.29063 37.196877 117.29063 35.61875L117.29063 29.650002L116.00938 29.650002L116.00938 28.275002L117.29063 28.275002L117.29063 25.712502L119.04063 24.650002L119.04063 28.275002L120.80625 28.275002L120.80625 29.650002L119.04063 29.650002L119.04063 35.7125Q119.04063 36.4625 119.13438 36.68125Q119.22813 36.884377 119.43125 37.025Q119.65 37.15 120.04063 37.15Q120.32188 37.15 120.80625 37.071877ZM130.07187 35.30625L131.88437 35.540627Q131.4625 37.11875 130.29062 38.009377Q129.13437 38.884377 127.32188 38.884377Q125.05625 38.884377 123.7125 37.49375Q122.38438 36.0875 122.38438 33.55625Q122.38438 30.931252 123.72813 29.493752Q125.07188 28.040627 127.22813 28.040627Q129.30624 28.040627 130.61874 29.462502Q131.94687 30.868752 131.94687 33.446877Q131.94687 33.603127 131.93124 33.915627L124.19688 33.915627Q124.29063 35.61875 125.16563 36.525Q126.04063 37.43125 127.3375 37.43125Q128.30624 37.43125 128.97812 36.93125Q129.66562 36.415627 130.07187 35.30625ZM124.29063 32.4625L130.0875 32.4625Q129.97812 31.165627 129.43124 30.509377Q128.5875 29.493752 127.24375 29.493752Q126.04063 29.493752 125.2125 30.306252Q124.38438 31.103127 124.29063 32.4625ZM139.97812 26.353127L139.97812 24.337502L141.74374 24.337502L141.74374 26.353127L139.97812 26.353127ZM139.97812 38.65L139.97812 28.275002L141.74374 28.275002L141.74374 38.65L139.97812 38.65ZM143.9625 38.65L143.9625 28.275002L145.55624 28.275002L145.55624 29.759377Q146.69687 28.040627 148.85312 28.040627Q149.79062 28.040627 150.57187 28.384377Q151.36874 28.712502 151.75937 29.259377Q152.15 29.806252 152.30624 30.556252Q152.4 31.056252 152.4 32.275L152.4 38.65L150.63437 38.65L150.63437 32.3375Q150.63437 31.259377 150.43124 30.728127Q150.22812 30.196877 149.69687 29.884377Q149.18124 29.571877 148.47812 29.571877Q147.35312 29.571877 146.54062 30.290627Q145.72812 30.993752 145.72812 32.978127L145.72812 38.65L143.9625 38.65ZM167.9 33.040627L167.9 31.353127L173.9625 31.337502L173.9625 36.65Q172.55624 37.775 171.07187 38.3375Q169.5875 38.9 168.025 38.9Q165.91562 38.9 164.19687 37.99375Q162.47812 37.0875 161.5875 35.384377Q160.7125 33.665627 160.7125 31.556252Q160.7125 29.462502 161.5875 27.665627Q162.4625 25.853127 164.10312 24.978127Q165.74374 24.087502 167.88437 24.087502Q169.43124 24.087502 170.68124 24.587502Q171.94687 25.087502 172.65 25.993752Q173.36874 26.884377 173.74374 28.337502L172.04062 28.806252Q171.7125 27.712502 171.22812 27.087502Q170.75937 26.462502 169.86874 26.087502Q168.97812 25.712502 167.9 25.712502Q166.5875 25.712502 165.63437 26.103127Q164.69687 26.493752 164.11874 27.150002Q163.54062 27.790627 163.2125 28.556252Q162.66562 29.884377 162.66562 31.446877Q162.66562 33.353127 163.32187 34.65Q163.99374 35.93125 165.24374 36.55625Q166.50937 37.18125 167.91562 37.18125Q169.15 37.18125 170.32187 36.7125Q171.49374 36.24375 172.10312 35.696877L172.10312 33.040627L167.9 33.040627ZM177.11874 38.65L177.11874 24.337502L182.49374 24.337502Q184.13437 24.337502 185.11874 24.775002Q186.10312 25.196877 186.66562 26.103127Q187.22812 27.009377 187.22812 27.993752Q187.22812 28.915627 186.72812 29.728127Q186.24374 30.540627 185.22812 31.025002Q186.525 31.415627 187.22812 32.3375Q187.93124 33.24375 187.93124 34.49375Q187.93124 35.509377 187.49374 36.36875Q187.07187 37.228127 186.44687 37.696877Q185.82187 38.165627 184.88437 38.415627Q183.94687 38.65 182.57187 38.65L177.11874 38.65ZM179.00937 30.353127L182.10312 30.353127Q183.36874 30.353127 183.91562 30.181252Q184.63437 29.962502 184.99374 29.478127Q185.36874 28.978127 185.36874 28.212502Q185.36874 27.509377 185.025 26.962502Q184.68124 26.415627 184.04062 26.228127Q183.41562 26.025002 181.86874 26.025002L179.00937 26.025002L179.00937 30.353127ZM179.00937 36.9625L182.57187 36.9625Q183.49374 36.9625 183.86874 36.884377Q184.525 36.775 184.9625 36.509377Q185.4 36.228127 185.68124 35.7125Q185.9625 35.18125 185.9625 34.49375Q185.9625 33.696877 185.55624 33.103127Q185.15 32.509377 184.41562 32.275Q183.68124 32.040627 182.32187 32.040627L179.00937 32.040627L179.00937 36.9625ZM188.65 38.9L192.80624 24.087502L194.2125 24.087502L190.07187 38.9L188.65 38.9ZM195.25937 35.55625L197.00937 35.275Q197.15 36.321877 197.82187 36.884377Q198.49374 37.43125 199.69687 37.43125Q200.9 37.43125 201.47812 36.946877Q202.07187 36.446877 202.07187 35.790627Q202.07187 35.196877 201.55624 34.853127Q201.19687 34.61875 199.75937 34.259377Q197.82187 33.759377 197.07187 33.415627Q196.3375 33.05625 195.94687 32.43125Q195.55624 31.790627 195.55624 31.025002Q195.55624 30.337502 195.86874 29.743752Q196.19687 29.150002 196.74374 28.759377Q197.15 28.462502 197.85312 28.259377Q198.57187 28.040627 199.38437 28.040627Q200.60312 28.040627 201.525 28.400002Q202.44687 28.743752 202.88437 29.353127Q203.32187 29.946877 203.49374 30.946877L201.775 31.181252Q201.65 30.384377 201.0875 29.946877Q200.525 29.493752 199.50937 29.493752Q198.29062 29.493752 197.775 29.900002Q197.25937 30.290627 197.25937 30.821877Q197.25937 31.165627 197.47812 31.446877Q197.68124 31.728127 198.15 31.915627Q198.41562 32.009377 199.69687 32.353127Q201.57187 32.853127 202.30624 33.18125Q203.04062 33.49375 203.4625 34.103127Q203.88437 34.696877 203.88437 35.603127Q203.88437 36.478127 203.36874 37.259377Q202.85312 38.040627 201.88437 38.4625Q200.91562 38.884377 199.69687 38.884377Q197.68124 38.884377 196.61874 38.040627Q195.55624 37.196877 195.25937 35.55625ZM213.07187 35.30625L214.88437 35.540627Q214.4625 37.11875 213.29062 38.009377Q212.13437 38.884377 210.32187 38.884377Q208.05624 38.884377 206.7125 37.49375Q205.38437 36.0875 205.38437 33.55625Q205.38437 30.931252 206.72812 29.493752Q208.07187 28.040627 210.22812 28.040627Q212.30624 28.040627 213.61874 29.462502Q214.94687 30.868752 214.94687 33.446877Q214.94687 33.603127 214.93124 33.915627L207.19687 33.915627Q207.29062 35.61875 208.16562 36.525Q209.04062 37.43125 210.3375 37.43125Q211.30624 37.43125 211.97812 36.93125Q212.66562 36.415627 213.07187 35.30625ZM207.29062 32.4625L213.0875 32.4625Q212.97812 31.165627 212.43124 30.509377Q211.5875 29.493752 210.24374 29.493752Q209.04062 29.493752 208.2125 30.306252Q207.38437 31.103127 207.29062 32.4625ZM223.74374 34.853127L225.4625 35.071877Q225.18124 36.86875 224.00937 37.884377Q222.85312 38.884377 221.15 38.884377Q219.025 38.884377 217.72812 37.49375Q216.43124 36.103127 216.43124 33.509377Q216.43124 31.821877 216.97812 30.571877Q217.54062 29.306252 218.68124 28.681252Q219.82187 28.040627 221.16562 28.040627Q222.85312 28.040627 223.91562 28.900002Q224.99374 29.759377 225.30624 31.321877L223.5875 31.587502Q223.35312 30.540627 222.72812 30.025002Q222.10312 29.493752 221.22812 29.493752Q219.9 29.493752 219.07187 30.446877Q218.24374 31.400002 218.24374 33.446877Q218.24374 35.540627 219.04062 36.49375Q219.8375 37.43125 221.13437 37.43125Q222.16562 37.43125 222.85312 36.80625Q223.55624 36.165627 223.74374 34.853127ZM233.38437 38.65L233.38437 29.650002L231.8375 29.650002L231.8375 28.275002L233.38437 28.275002L233.38437 27.181252Q233.38437 26.134377 233.57187 25.618752Q233.82187 24.931252 234.4625 24.509377Q235.10312 24.087502 236.25937 24.087502Q237.00937 24.087502 237.9 24.259377L237.63437 25.790627Q237.0875 25.696877 236.60312 25.696877Q235.80624 25.696877 235.4625 26.040627Q235.13437 26.384377 235.13437 27.321877L235.13437 28.275002L237.16562 28.275002L237.16562 29.650002L235.13437 29.650002L235.13437 38.65L233.38437 38.65ZM238.32187 33.4625Q238.32187 30.587502 239.91562 29.196877Q241.25937 28.040627 243.18124 28.040627Q245.32187 28.040627 246.66562 29.446877Q248.025 30.853127 248.025 33.321877Q248.025 35.321877 247.43124 36.478127Q246.8375 37.61875 245.68124 38.259377Q244.54062 38.884377 243.18124 38.884377Q240.99374 38.884377 239.65 37.49375Q238.32187 36.0875 238.32187 33.4625ZM240.11874 33.4625Q240.11874 35.4625 240.97812 36.446877Q241.85312 37.43125 243.18124 37.43125Q244.49374 37.43125 245.35312 36.446877Q246.22812 35.446877 246.22812 33.4Q246.22812 31.478127 245.35312 30.493752Q244.47812 29.493752 243.18124 29.493752Q241.85312 29.493752 240.97812 30.493752Q240.11874 31.478127 240.11874 33.4625ZM249.94687 38.65L249.94687 28.275002L251.525 28.275002L251.525 29.853127Q252.13437 28.743752 252.65 28.400002Q253.16562 28.040627 253.775 28.040627Q254.66562 28.040627 255.5875 28.603127L254.97812 30.243752Q254.3375 29.853127 253.69687 29.853127Q253.11874 29.853127 252.65 30.212502Q252.19687 30.556252 251.99374 31.165627Q251.7125 32.103127 251.7125 33.2125L251.7125 38.65L249.94687 38.65ZM262.97812 26.353127L262.97812 24.337502L264.74374 24.337502L264.74374 26.353127L262.97812 26.353127ZM262.97812 38.65L262.97812 28.275002L264.74374 28.275002L264.74374 38.65L262.97812 38.65ZM266.9625 38.65L266.9625 28.275002L268.55624 28.275002L268.55624 29.759377Q269.69687 28.040627 271.85312 28.040627Q272.79062 28.040627 273.57187 28.384377Q274.36874 28.712502 274.75937 29.259377Q275.15 29.806252 275.30624 30.556252Q275.4 31.056252 275.4 32.275L275.4 38.65L273.63437 38.65L273.63437 32.3375Q273.63437 31.259377 273.43124 30.728127Q273.22812 30.196877 272.69687 29.884377Q272.18124 29.571877 271.47812 29.571877Q270.35312 29.571877 269.54062 30.290627Q268.72812 30.993752 268.72812 32.978127L268.72812 38.65L266.9625 38.65ZM277.9625 42.61875L277.9625 28.275002L279.57187 28.275002L279.57187 29.618752Q280.13437 28.837502 280.8375 28.446877Q281.55624 28.040627 282.57187 28.040627Q283.9 28.040627 284.91562 28.728127Q285.93124 29.415627 286.44687 30.665627Q286.97812 31.900002 286.97812 33.384377Q286.97812 34.978127 286.4 36.259377Q285.8375 37.525 284.74374 38.2125Q283.65 38.884377 282.44687 38.884377Q281.57187 38.884377 280.86874 38.509377Q280.18124 38.134377 279.72812 37.571877L279.72812 42.61875L277.9625 42.61875ZM279.55624 33.525Q279.55624 35.525 280.36874 36.478127Q281.18124 37.43125 282.3375 37.43125Q283.50937 37.43125 284.3375 36.446877Q285.18124 35.4625 285.18124 33.36875Q285.18124 31.400002 284.35312 30.415627Q283.54062 29.415627 282.41562 29.415627Q281.29062 29.415627 280.41562 30.478127Q279.55624 31.525002 279.55624 33.525ZM295.75937 38.65L295.75937 37.11875Q294.55624 38.884377 292.47812 38.884377Q291.55624 38.884377 290.75937 38.540627Q289.9625 38.18125 289.57187 37.65Q289.19687 37.11875 289.04062 36.3375Q288.93124 35.821877 288.93124 34.696877L288.93124 28.275002L290.68124 28.275002L290.68124 34.025Q290.68124 35.4 290.79062 35.884377Q290.9625 36.571877 291.49374 36.978127Q292.04062 37.36875 292.82187 37.36875Q293.61874 37.36875 294.30624 36.9625Q295.00937 36.55625 295.29062 35.86875Q295.5875 35.165627 295.5875 33.8375L295.5875 28.275002L297.3375 28.275002L297.3375 38.65L295.75937 38.65ZM303.80624 37.071877L304.05624 38.634377Q303.32187 38.790627 302.72812 38.790627Q301.775 38.790627 301.24374 38.49375Q300.72812 38.18125 300.50937 37.696877Q300.29062 37.196877 300.29062 35.61875L300.29062 29.650002L299.00937 29.650002L299.00937 28.275002L300.29062 28.275002L300.29062 25.712502L302.04062 24.650002L302.04062 28.275002L303.80624 28.275002L303.80624 29.650002L302.04062 29.650002L302.04062 35.7125Q302.04062 36.4625 302.13437 36.68125Q302.22812 36.884377 302.43124 37.025Q302.65 37.15 303.04062 37.15Q303.32187 37.15 303.80624 37.071877ZM311.25937 35.55625L313.00937 35.275Q313.15 36.321877 313.82187 36.884377Q314.49374 37.43125 315.69687 37.43125Q316.9 37.43125 317.47812 36.946877Q318.07187 36.446877 318.07187 35.790627Q318.07187 35.196877 317.55624 34.853127Q317.19687 34.61875 315.75937 34.259377Q313.82187 33.759377 313.07187 33.415627Q312.3375 33.05625 311.94687 32.43125Q311.55624 31.790627 311.55624 31.025002Q311.55624 30.337502 311.86874 29.743752Q312.19687 29.150002 312.74374 28.759377Q313.15 28.462502 313.85312 28.259377Q314.57187 28.040627 315.38437 28.040627Q316.60312 28.040627 317.525 28.400002Q318.44687 28.743752 318.88437 29.353127Q319.32187 29.946877 319.49374 30.946877L317.775 31.181252Q317.65 30.384377 317.0875 29.946877Q316.525 29.493752 315.50937 29.493752Q314.29062 29.493752 313.775 29.900002Q313.25937 30.290627 313.25937 30.821877Q313.25937 31.165627 313.47812 31.446877Q313.68124 31.728127 314.15 31.915627Q314.41562 32.009377 315.69687 32.353127Q317.57187 32.853127 318.30624 33.18125Q319.04062 33.49375 319.4625 34.103127Q319.88437 34.696877 319.88437 35.603127Q319.88437 36.478127 319.36874 37.259377Q318.85312 38.040627 317.88437 38.4625Q316.91562 38.884377 315.69687 38.884377Q313.68124 38.884377 312.61874 38.040627Q311.55624 37.196877 311.25937 35.55625ZM321.97812 26.353127L321.97812 24.337502L323.74374 24.337502L323.74374 26.353127L321.97812 26.353127ZM321.97812 38.65L321.97812 28.275002L323.74374 28.275002L323.74374 38.65L321.97812 38.65ZM325.04062 38.65L325.04062 37.228127L331.65 29.650002Q330.525 29.696877 329.66562 29.696877L325.43124 29.696877L325.43124 28.275002L333.91562 28.275002L333.91562 29.446877L328.29062 36.025L327.2125 37.228127Q328.38437 37.134377 329.43124 37.134377L334.22812 37.134377L334.22812 38.65L325.04062 38.65ZM343.07187 35.30625L344.88437 35.540627Q344.4625 37.11875 343.29062 38.009377Q342.13437 38.884377 340.32187 38.884377Q338.05624 38.884377 336.7125 37.49375Q335.38437 36.0875 335.38437 33.55625Q335.38437 30.931252 336.72812 29.493752Q338.07187 28.040627 340.22812 28.040627Q342.30624 28.040627 343.61874 29.462502Q344.94687 30.868752 344.94687 33.446877Q344.94687 33.603127 344.93124 33.915627L337.19687 33.915627Q337.29062 35.61875 338.16562 36.525Q339.04062 37.43125 340.3375 37.43125Q341.30624 37.43125 341.97812 36.93125Q342.66562 36.415627 343.07187 35.30625ZM337.29062 32.4625L343.0875 32.4625Q342.97812 31.165627 342.43124 30.509377Q341.5875 29.493752 340.24374 29.493752Q339.04062 29.493752 338.2125 30.306252Q337.38437 31.103127 337.29062 32.4625ZM356.32187 42.853127Q354.86874 41.025 353.86874 38.571877Q352.86874 36.103127 352.86874 33.4625Q352.86874 31.134377 353.61874 29.009377Q354.49374 26.540627 356.32187 24.087502L357.5875 24.087502Q356.4 26.118752 356.025 26.993752Q355.43124 28.337502 355.0875 29.806252Q354.66562 31.634377 354.66562 33.478127Q354.66562 38.165627 357.5875 42.853127L356.32187 42.853127ZM360.38437 38.65L360.38437 29.650002L358.8375 29.650002L358.8375 28.275002L360.38437 28.275002L360.38437 27.181252Q360.38437 26.134377 360.57187 25.618752Q360.82187 24.931252 361.4625 24.509377Q362.10312 24.087502 363.25937 24.087502Q364.00937 24.087502 364.9 24.259377L364.63437 25.790627Q364.0875 25.696877 363.60312 25.696877Q362.80624 25.696877 362.4625 26.040627Q362.13437 26.384377 362.13437 27.321877L362.13437 28.275002L364.16562 28.275002L364.16562 29.650002L362.13437 29.650002L362.13437 38.65L360.38437 38.65ZM372.75937 38.65L372.75937 37.11875Q371.55624 38.884377 369.47812 38.884377Q368.55624 38.884377 367.75937 38.540627Q366.9625 38.18125 366.57187 37.65Q366.19687 37.11875 366.04062 36.3375Q365.93124 35.821877 365.93124 34.696877L365.93124 28.275002L367.68124 28.275002L367.68124 34.025Q367.68124 35.4 367.79062 35.884377Q367.9625 36.571877 368.49374 36.978127Q369.04062 37.36875 369.82187 37.36875Q370.61874 37.36875 371.30624 36.9625Q372.00937 36.55625 372.29062 35.86875Q372.5875 35.165627 372.5875 33.8375L372.5875 28.275002L374.3375 28.275002L374.3375 38.65L372.75937 38.65ZM376.93124 38.65L376.93124 24.337502L378.68124 24.337502L378.68124 38.65L376.93124 38.65ZM380.93124 38.65L380.93124 24.337502L382.68124 24.337502L382.68124 38.65L380.93124 38.65ZM392.5875 38.65L390.9625 38.65L390.9625 24.337502L392.7125 24.337502L392.7125 29.446877Q393.8375 28.040627 395.55624 28.040627Q396.50937 28.040627 397.36874 28.431252Q398.22812 28.821877 398.775 29.525002Q399.32187 30.212502 399.63437 31.196877Q399.94687 32.18125 399.94687 33.30625Q399.94687 35.978127 398.63437 37.43125Q397.32187 38.884377 395.47812 38.884377Q393.63437 38.884377 392.5875 37.353127L392.5875 38.65ZM392.57187 33.384377Q392.57187 35.24375 393.07187 36.0875Q393.91562 37.43125 395.32187 37.43125Q396.47812 37.43125 397.30624 36.43125Q398.15 35.43125 398.15 33.446877Q398.15 31.415627 397.3375 30.462502Q396.54062 29.493752 395.4 29.493752Q394.24374 29.493752 393.4 30.493752Q392.57187 31.493752 392.57187 33.384377ZM408.75937 38.65L408.75937 37.11875Q407.55624 38.884377 405.47812 38.884377Q404.55624 38.884377 403.75937 38.540627Q402.9625 38.18125 402.57187 37.65Q402.19687 37.11875 402.04062 36.3375Q401.93124 35.821877 401.93124 34.696877L401.93124 28.275002L403.68124 28.275002L403.68124 34.025Q403.68124 35.4 403.79062 35.884377Q403.9625 36.571877 404.49374 36.978127Q405.04062 37.36875 405.82187 37.36875Q406.61874 37.36875 407.30624 36.9625Q408.00937 36.55625 408.29062 35.86875Q408.5875 35.165627 408.5875 33.8375L408.5875 28.275002L410.3375 28.275002L410.3375 38.65L408.75937 38.65ZM413.38437 38.65L413.38437 29.650002L411.8375 29.650002L411.8375 28.275002L413.38437 28.275002L413.38437 27.181252Q413.38437 26.134377 413.57187 25.618752Q413.82187 24.931252 414.4625 24.509377Q415.10312 24.087502 416.25937 24.087502Q417.00937 24.087502 417.9 24.259377L417.63437 25.790627Q417.0875 25.696877 416.60312 25.696877Q415.80624 25.696877 415.4625 26.040627Q415.13437 26.384377 415.13437 27.321877L415.13437 28.275002L417.16562 28.275002L417.16562 29.650002L415.13437 29.650002L415.13437 38.65L413.38437 38.65ZM419.38437 38.65L419.38437 29.650002L417.8375 29.650002L417.8375 28.275002L419.38437 28.275002L419.38437 27.181252Q419.38437 26.134377 419.57187 25.618752Q419.82187 24.931252 420.4625 24.509377Q421.10312 24.087502 422.25937 24.087502Q423.00937 24.087502 423.9 24.259377L423.63437 25.790627Q423.0875 25.696877 422.60312 25.696877Q421.80624 25.696877 421.4625 26.040627Q421.13437 26.384377 421.13437 27.321877L421.13437 28.275002L423.16562 28.275002L423.16562 29.650002L421.13437 29.650002L421.13437 38.65L419.38437 38.65ZM432.07187 35.30625L433.88437 35.540627Q433.4625 37.11875 432.29062 38.009377Q431.13437 38.884377 429.32187 38.884377Q427.05624 38.884377 425.7125 37.49375Q424.38437 36.0875 424.38437 33.55625Q424.38437 30.931252 425.72812 29.493752Q427.07187 28.040627 429.22812 28.040627Q431.30624 28.040627 432.61874 29.462502Q433.94687 30.868752 433.94687 33.446877Q433.94687 33.603127 433.93124 33.915627L426.19687 33.915627Q426.29062 35.61875 427.16562 36.525Q428.04062 37.43125 429.3375 37.43125Q430.30624 37.43125 430.97812 36.93125Q431.66562 36.415627 432.07187 35.30625ZM426.29062 32.4625L432.0875 32.4625Q431.97812 31.165627 431.43124 30.509377Q430.5875 29.493752 429.24374 29.493752Q428.04062 29.493752 427.2125 30.306252Q426.38437 31.103127 426.29062 32.4625ZM435.94687 38.65L435.94687 28.275002L437.525 28.275002L437.525 29.853127Q438.13437 28.743752 438.65 28.400002Q439.16562 28.040627 439.775 28.040627Q440.66562 28.040627 441.5875 28.603127L440.97812 30.243752Q440.3375 29.853127 439.69687 29.853127Q439.11874 29.853127 438.65 30.212502Q438.19687 30.556252 437.99374 31.165627Q437.7125 32.103127 437.7125 33.2125L437.7125 38.65L435.94687 38.65ZM444.11874 42.853127L442.86874 42.853127Q445.775 38.165627 445.775 33.478127Q445.775 31.634377 445.36874 29.837502Q445.025 28.368752 444.43124 27.025002Q444.05624 26.134377 442.86874 24.087502L444.11874 24.087502Q445.9625 26.540627 446.8375 29.009377Q447.5875 31.134377 447.5875 33.4625Q447.5875 36.103127 446.57187 38.571877Q445.57187 41.025 444.11874 42.853127Z" fill-rule="nonzero"/></svg>