<svg version="1.1" viewBox="0.0 0.0 802.0 393.0" fill="none" stroke="none" stroke-linecap="square" stroke-miterlimit="10" width="802" height="393" xmlns:xlink="http://www.w3.org/1999/xlink" xmlns="http://www.w3.org/2000/svg"><path fill="#ffffff" d="M0 0L802.0 0L802.0 393.0L0 393.0L0 0Z" fill-rule="nonzero"/><path stroke="#333333" stroke-width="1.0" stroke-linecap="butt" d="M46.5 353.5L782.5 353.5" fill-rule="nonzero"/><path stroke="#cccccc" stroke-width="1.0" stroke-linecap="butt" d="M46.5 263.5L782.5 263.5" fill-rule="nonzero"/><path stroke="#cccccc" stroke-width="1.0" stroke-linecap="butt" d="M46.5 173.5L782.5 173.5" fill-rule="nonzero"/><path stroke="#cccccc" stroke-width="1.0" stroke-linecap="butt" d="M46.5 82.5L782.5 82.5" fill-rule="nonzero"/><clipPath id="id_0"><path d="M46.65 82.9117L782.35 82.9117L782.35 353.35L46.65 353.35L46.65 82.9117Z" clip-rule="nonzero"/></clipPath><path stroke="#000000" stroke-width="0.0" stroke-linecap="butt" stroke-opacity="0.0" clip-path="url(#id_0)" d="M142.0 353.0L106.0 353.0L106.0 299.0C106.0 297.89542 106.89543 297.0 108.0 297.0L140.0 297.0C141.10457 297.0 142.0 297.89542 142.0 299.0Z" fill-rule="nonzero"/><path fill="#9fc5e8" clip-path="url(#id_0)" d="M142.0 353.0L106.0 353.0L106.0 299.0C106.0 297.89542 106.89543 297.0 108.0 297.0L140.0 297.0C141.10457 297.0 142.0 297.89542 142.0 299.0Z" fill-rule="nonzero"/><path stroke="#000000" stroke-width="0.0" stroke-linecap="butt" stroke-opacity="0.0" clip-path="url(#id_0)" d="M311.0 353.0L275.0 353.0L275.0 229.0C275.0 227.89543 275.89542 227.0 277.0 227.0L309.0 227.0C310.10458 227.0 311.0 227.89543 311.0 229.0Z" fill-rule="nonzero"/><path fill="#9fc5e8" clip-path="url(#id_0)" d="M311.0 353.0L275.0 353.0L275.0 229.0C275.0 227.89543 275.89542 227.0 277.0 227.0L309.0 227.0C310.10458 227.0 311.0 227.89543 311.0 229.0Z" fill-rule="nonzero"/><path stroke="#000000" stroke-width="0.0" stroke-linecap="butt" stroke-opacity="0.0" clip-path="url(#id_0)" d="M480.0 353.0L444.0 353.0L444.0 195.0C444.0 193.89543 444.89542 193.0 446.0 193.0L478.0 193.0C479.10458 193.0 480.0 193.89543 480.0 195.0Z" fill-rule="nonzero"/><path fill="#9fc5e8" clip-path="url(#id_0)" d="M480.0 353.0L444.0 353.0L444.0 195.0C444.0 193.89543 444.89542 193.0 446.0 193.0L478.0 193.0C479.10458 193.0 480.0 193.89543 480.0 195.0Z" fill-rule="nonzero"/><path stroke="#000000" stroke-width="0.0" stroke-linecap="butt" stroke-opacity="0.0" clip-path="url(#id_0)" d="M649.0 353.0L613.0 353.0L613.0 181.0C613.0 179.89543 613.89545 179.0 615.0 179.0L647.0 179.0C648.10455 179.0 649.0 179.89543 649.0 181.0Z" fill-rule="nonzero"/><path fill="#9fc5e8" clip-path="url(#id_0)" d="M649.0 353.0L613.0 353.0L613.0 181.0C613.0 179.89543 613.89545 179.0 615.0 179.0L647.0 179.0C648.10455 179.0 649.0 179.89543 649.0 181.0Z" fill-rule="nonzero"/><path stroke="#000000" stroke-width="0.0" stroke-linecap="butt" stroke-opacity="0.0" clip-path="url(#id_0)" d="M179.0 353.0L143.0 353.0L143.0 222.0C143.0 220.89543 143.89543 220.0 145.0 220.0L177.0 220.0C178.10457 220.0 179.0 220.89543 179.0 222.0Z" fill-rule="nonzero"/><path fill="#0b5394" clip-path="url(#id_0)" d="M179.0 353.0L143.0 353.0L143.0 222.0C143.0 220.89543 143.89543 220.0 145.0 220.0L177.0 220.0C178.10457 220.0 179.0 220.89543 179.0 222.0Z" fill-rule="nonzero"/><path stroke="#000000" stroke-width="0.0" stroke-linecap="butt" stroke-opacity="0.0" clip-path="url(#id_0)" d="M348.0 353.0L312.0 353.0L312.0 170.0C312.0 168.89543 312.89542 168.0 314.0 168.0L346.0 168.0C347.10458 168.0 348.0 168.89543 348.0 170.0Z" fill-rule="nonzero"/><path fill="#0b5394" clip-path="url(#id_0)" d="M348.0 353.0L312.0 353.0L312.0 170.0C312.0 168.89543 312.89542 168.0 314.0 168.0L346.0 168.0C347.10458 168.0 348.0 168.89543 348.0 170.0Z" fill-rule="nonzero"/><path stroke="#000000" stroke-width="0.0" stroke-linecap="butt" stroke-opacity="0.0" clip-path="url(#id_0)" d="M517.0 353.0L481.0 353.0L481.0 157.0C481.0 155.89543 481.89542 155.0 483.0 155.0L515.0 155.0C516.10455 155.0 517.0 155.89543 517.0 157.0Z" fill-rule="nonzero"/><path fill="#0b5394" clip-path="url(#id_0)" d="M517.0 353.0L481.0 353.0L481.0 157.0C481.0 155.89543 481.89542 155.0 483.0 155.0L515.0 155.0C516.10455 155.0 517.0 155.89543 517.0 157.0Z" fill-rule="nonzero"/><path stroke="#000000" stroke-width="0.0" stroke-linecap="butt" stroke-opacity="0.0" clip-path="url(#id_0)" d="M686.0 353.0L650.0 353.0L650.0 152.0C650.0 150.89543 650.89545 150.0 652.0 150.0L684.0 150.0C685.10455 150.0 686.0 150.89543 686.0 152.0Z" fill-rule="nonzero"/><path fill="#0b5394" clip-path="url(#id_0)" d="M686.0 353.0L650.0 353.0L650.0 152.0C650.0 150.89543 650.89545 150.0 652.0 150.0L684.0 150.0C685.10455 150.0 686.0 150.89543 686.0 152.0Z" fill-rule="nonzero"/><path stroke="#000000" stroke-width="0.0" stroke-linecap="butt" stroke-opacity="0.0" clip-path="url(#id_0)" d="M216.0 353.0L180.0 353.0L180.0 150.0C180.0 148.89543 180.89543 148.0 182.0 148.0L214.0 148.0C215.10457 148.0 216.0 148.89543 216.0 150.0Z" fill-rule="nonzero"/><path fill="#990000" clip-path="url(#id_0)" d="M216.0 353.0L180.0 353.0L180.0 150.0C180.0 148.89543 180.89543 148.0 182.0 148.0L214.0 148.0C215.10457 148.0 216.0 148.89543 216.0 150.0Z" fill-rule="nonzero"/><path stroke="#000000" stroke-width="0.0" stroke-linecap="butt" stroke-opacity="0.0" clip-path="url(#id_0)" d="M385.0 353.0L349.0 353.0L349.0 128.0C349.0 126.89543 349.89542 126.0 351.0 126.0L383.0 126.0C384.10458 126.0 385.0 126.89543 385.0 128.0Z" fill-rule="nonzero"/><path fill="#990000" clip-path="url(#id_0)" d="M385.0 353.0L349.0 353.0L349.0 128.0C349.0 126.89543 349.89542 126.0 351.0 126.0L383.0 126.0C384.10458 126.0 385.0 126.89543 385.0 128.0Z" fill-rule="nonzero"/><path stroke="#000000" stroke-width="0.0" stroke-linecap="butt" stroke-opacity="0.0" clip-path="url(#id_0)" d="M554.0 353.0L518.0 353.0L518.0 125.0C518.0 123.89543 518.89545 123.0 520.0 123.0L552.0 123.0C553.10455 123.0 554.0 123.89543 554.0 125.0Z" fill-rule="nonzero"/><path fill="#990000" clip-path="url(#id_0)" d="M554.0 353.0L518.0 353.0L518.0 125.0C518.0 123.89543 518.89545 123.0 520.0 123.0L552.0 123.0C553.10455 123.0 554.0 123.89543 554.0 125.0Z" fill-rule="nonzero"/><path stroke="#000000" stroke-width="0.0" stroke-linecap="butt" stroke-opacity="0.0" clip-path="url(#id_0)" d="M723.0 353.0L687.0 353.0L687.0 123.0C687.0 121.89543 687.89545 121.0 689.0 121.0L721.0 121.0C722.10455 121.0 723.0 121.89543 723.0 123.0Z" fill-rule="nonzero"/><path fill="#990000" clip-path="url(#id_0)" d="M723.0 353.0L687.0 353.0L687.0 123.0C687.0 121.89543 687.89545 121.0 689.0 121.0L721.0 121.0C722.10455 121.0 723.0 121.89543 723.0 123.0Z" fill-rule="nonzero"/><path fill="#000000" d="M34.15 353.11563Q34.15 351.58438 34.4625 350.6625Q34.775 349.725 35.384377 349.225Q36.009377 348.725 36.946877 348.725Q37.634377 348.725 38.15 349.00626Q38.68125 349.2875 39.025 349.81876Q39.36875 350.33438 39.55625 351.08438Q39.74375 351.83438 39.74375 353.11563Q39.74375 354.63126 39.43125 355.55313Q39.134377 356.475 38.509377 356.99063Q37.9 357.49063 36.946877 357.49063Q35.7125 357.49063 34.99375 356.6Q34.15 355.5375 34.15 353.11563ZM35.228127 353.11563Q35.228127 355.225 35.728127 355.92813Q36.228127 356.63126 36.946877 356.63126Q37.68125 356.63126 38.165627 355.92813Q38.665627 355.225 38.665627 353.11563Q38.665627 350.99063 38.165627 350.30313Q37.68125 349.6 36.93125 349.6Q36.2125 349.6 35.775 350.20938Q35.228127 350.99063 35.228127 353.11563Z" fill-rule="nonzero"/><path fill="#000000" d="M24.15 262.9695Q24.15 261.43826 24.4625 260.5164Q24.775 259.5789 25.384375 259.0789Q26.009375 258.5789 26.946875 258.5789Q27.634375 258.5789 28.15 258.86014Q28.68125 259.1414 29.025 259.67264Q29.36875 260.18826 29.55625 260.93826Q29.74375 261.68826 29.74375 262.9695Q29.74375 264.48514 29.43125 265.407Q29.134375 266.3289 28.509375 266.8445Q27.9 267.3445 26.946875 267.3445Q25.7125 267.3445 24.99375 266.4539Q24.15 265.3914 24.15 262.9695ZM25.228125 262.9695Q25.228125 265.0789 25.728125 265.782Q26.228125 266.48514 26.946875 266.48514Q27.68125 266.48514 28.165625 265.782Q28.665625 265.0789 28.665625 262.9695Q28.665625 260.8445 28.165625 260.157Q27.68125 259.4539 26.93125 259.4539Q26.2125 259.4539 25.775 260.06326Q25.228125 260.8445 25.228125 262.9695ZM31.74375 267.2039L31.74375 266.00076L32.946877 266.00076L32.946877 267.2039L31.74375 267.2039ZM34.15 264.9539L35.259377 264.86014Q35.384377 265.67264 35.821877 266.0789Q36.275 266.48514 36.915627 266.48514Q37.665627 266.48514 38.196877 265.907Q38.728127 265.3289 38.728127 264.3914Q38.728127 263.48514 38.2125 262.9695Q37.7125 262.43826 36.884377 262.43826Q36.384377 262.43826 35.9625 262.67264Q35.55625 262.907 35.321877 263.2664L34.3375 263.1414L35.165627 258.73514L39.446877 258.73514L39.446877 259.73514L36.009377 259.73514L35.55625 262.04764Q36.321877 261.50076 37.165627 261.50076Q38.290627 261.50076 39.05625 262.282Q39.8375 263.06326 39.8375 264.29764Q39.8375 265.4539 39.165627 266.31326Q38.3375 267.3445 36.915627 267.3445Q35.74375 267.3445 34.99375 266.68826Q34.259377 266.032 34.15 264.9539Z" fill-rule="nonzero"/><path fill="#000000" d="M38.11875 177.0578L37.071877 177.0578L37.071877 170.33905Q36.68125 170.69843 36.05625 171.07343Q35.446877 171.4328 34.9625 171.60468L34.9625 170.58905Q35.8375 170.16718 36.49375 169.58905Q37.165627 168.9953 37.446877 168.4328L38.11875 168.4328L38.11875 177.0578Z" fill-rule="nonzero"/><path fill="#000000" d="M28.11875 86.9117L27.071875 86.9117L27.071875 80.19295Q26.68125 80.55232 26.05625 80.92732Q25.446875 81.2867 24.9625 81.45857L24.9625 80.44295Q25.8375 80.02107 26.49375 79.44295Q27.165625 78.8492 27.446875 78.2867L28.11875 78.2867L28.11875 86.9117ZM31.74375 86.9117L31.74375 85.70857L32.946877 85.70857L32.946877 86.9117L31.74375 86.9117ZM34.15 84.6617L35.259377 84.56795Q35.384377 85.38045 35.821877 85.7867Q36.275 86.19295 36.915627 86.19295Q37.665627 86.19295 38.196877 85.61482Q38.728127 85.0367 38.728127 84.0992Q38.728127 83.19295 38.2125 82.67732Q37.7125 82.14607 36.884377 82.14607Q36.384377 82.14607 35.9625 82.38045Q35.55625 82.61482 35.321877 82.9742L34.3375 82.8492L35.165627 78.44295L39.446877 78.44295L39.446877 79.44295L36.009377 79.44295L35.55625 81.75545Q36.321877 81.20857 37.165627 81.20857Q38.290627 81.20857 39.05625 81.98982Q39.8375 82.77107 39.8375 84.00545Q39.8375 85.1617 39.165627 86.02107Q38.3375 87.05232 36.915627 87.05232Q35.74375 87.05232 34.99375 86.39607Q34.259377 85.73982 34.15 84.6617Z" fill-rule="nonzero"/><path fill="#000000" d="M154.7791 363.86563L153.73222 363.94376Q153.5916 363.31876 153.3416 363.0375Q152.9041 362.58438 152.2791 362.58438Q151.7791 362.58438 151.38847 362.86563Q150.9041 363.24063 150.60722 363.94376Q150.32597 364.63126 150.31035 365.9125Q150.68535 365.33438 151.23222 365.05313Q151.79472 364.77188 152.4041 364.77188Q153.45097 364.77188 154.18535 365.55313Q154.93535 366.33438 154.93535 367.55313Q154.93535 368.36563 154.57597 369.06876Q154.23222 369.75626 153.62285 370.13126Q153.01347 370.49063 152.24785 370.49063Q150.91972 370.49063 150.0916 369.52188Q149.26347 368.55313 149.26347 366.33438Q149.26347 363.83438 150.18535 362.70938Q150.98222 361.725 152.3416 361.725Q153.35722 361.725 153.99785 362.30313Q154.6541 362.86563 154.7791 363.86563ZM150.48222 367.56876Q150.48222 368.11563 150.70097 368.61563Q150.93535 369.1 151.3416 369.36563Q151.76347 369.63126 152.23222 369.63126Q152.88847 369.63126 153.37285 369.1Q153.85722 368.55313 153.85722 367.63126Q153.85722 366.74063 153.37285 366.225Q152.9041 365.70938 152.18535 365.70938Q151.4666 365.70938 150.9666 366.225Q150.48222 366.74063 150.48222 367.56876ZM159.68535 370.35L159.68535 368.2875L155.9666 368.2875L155.9666 367.31876L159.88847 361.75626L160.74785 361.75626L160.74785 367.31876L161.9041 367.31876L161.9041 368.2875L160.74785 368.2875L160.74785 370.35L159.68535 370.35ZM159.68535 367.31876L159.68535 363.45938L156.99785 367.31876L159.68535 367.31876ZM167.57597 370.35L166.5916 370.35L166.5916 361.75626L167.6541 361.75626L167.6541 364.81876Q168.32597 363.99063 169.35722 363.99063Q169.93535 363.99063 170.43535 364.225Q170.95097 364.44376 171.2791 364.86563Q171.62285 365.2875 171.81035 365.88126Q171.99785 366.475 171.99785 367.14688Q171.99785 368.74063 171.20097 369.61563Q170.4041 370.49063 169.31035 370.49063Q168.20097 370.49063 167.57597 369.56876L167.57597 370.35ZM167.56035 367.19376Q167.56035 368.30313 167.87285 368.80313Q168.37285 369.61563 169.2166 369.61563Q169.9041 369.61563 170.4041 369.02188Q170.91972 368.42813 170.91972 367.225Q170.91972 366.00626 170.43535 365.42813Q169.95097 364.85 169.26347 364.85Q168.57597 364.85 168.06035 365.45938Q167.56035 366.05313 167.56035 367.19376Z" fill-rule="nonzero"/><path fill="#000000" d="M320.48364 369.33438L320.48364 370.35L314.79614 370.35Q314.79614 369.975 314.92114 369.61563Q315.1399 369.0375 315.60864 368.475Q316.09302 367.9125 316.99927 367.17813Q318.40552 366.02188 318.8899 365.35Q319.3899 364.67813 319.3899 364.08438Q319.3899 363.45938 318.93677 363.0375Q318.48364 362.6 317.7649 362.6Q316.99927 362.6 316.54614 363.05313Q316.09302 363.50626 316.0774 364.31876L314.99927 364.20938Q315.10864 362.99063 315.8274 362.36563Q316.56177 361.725 317.79614 361.725Q319.03052 361.725 319.74927 362.4125Q320.46802 363.1 320.46802 364.11563Q320.46802 364.63126 320.24927 365.13126Q320.04614 365.61563 319.54614 366.17813Q319.06177 366.725 317.93677 367.67813Q316.98364 368.475 316.7024 368.77188Q316.43677 369.05313 316.2649 369.33438L320.48364 369.33438ZM321.93677 368.1L323.04614 368.00626Q323.17114 368.81876 323.60864 369.225Q324.06177 369.63126 324.7024 369.63126Q325.4524 369.63126 325.98364 369.05313Q326.5149 368.475 326.5149 367.5375Q326.5149 366.63126 325.99927 366.11563Q325.49927 365.58438 324.67114 365.58438Q324.17114 365.58438 323.74927 365.81876Q323.34302 366.05313 323.10864 366.4125L322.12427 366.2875L322.9524 361.88126L327.23364 361.88126L327.23364 362.88126L323.79614 362.88126L323.34302 365.19376Q324.10864 364.64688 324.9524 364.64688Q326.0774 364.64688 326.84302 365.42813Q327.62427 366.20938 327.62427 367.44376Q327.62427 368.6 326.9524 369.45938Q326.12427 370.49063 324.7024 370.49063Q323.53052 370.49063 322.78052 369.83438Q322.04614 369.17813 321.93677 368.1ZM334.40552 363.86563L333.35864 363.94376Q333.21802 363.31876 332.96802 363.0375Q332.53052 362.58438 331.90552 362.58438Q331.40552 362.58438 331.0149 362.86563Q330.53052 363.24063 330.23364 363.94376Q329.9524 364.63126 329.93677 365.9125Q330.31177 365.33438 330.85864 365.05313Q331.42114 364.77188 332.03052 364.77188Q333.0774 364.77188 333.81177 365.55313Q334.56177 366.33438 334.56177 367.55313Q334.56177 368.36563 334.2024 369.06876Q333.85864 369.75626 333.24927 370.13126Q332.6399 370.49063 331.87427 370.49063Q330.54614 370.49063 329.71802 369.52188Q328.8899 368.55313 328.8899 366.33438Q328.8899 363.83438 329.81177 362.70938Q330.60864 361.725 331.96802 361.725Q332.98364 361.725 333.62427 362.30313Q334.28052 362.86563 334.40552 363.86563ZM330.10864 367.56876Q330.10864 368.11563 330.3274 368.61563Q330.56177 369.1 330.96802 369.36563Q331.3899 369.63126 331.85864 369.63126Q332.5149 369.63126 332.99927 369.1Q333.48364 368.55313 333.48364 367.63126Q333.48364 366.74063 332.99927 366.225Q332.53052 365.70938 331.81177 365.70938Q331.09302 365.70938 330.59302 366.225Q330.10864 366.74063 330.10864 367.56876ZM340.2024 370.35L339.21802 370.35L339.21802 361.75626L340.28052 361.75626L340.28052 364.81876Q340.9524 363.99063 341.98364 363.99063Q342.56177 363.99063 343.06177 364.225Q343.5774 364.44376 343.90552 364.86563Q344.24927 365.2875 344.43677 365.88126Q344.62427 366.475 344.62427 367.14688Q344.62427 368.74063 343.8274 369.61563Q343.03052 370.49063 341.93677 370.49063Q340.8274 370.49063 340.2024 369.56876L340.2024 370.35ZM340.18677 367.19376Q340.18677 368.30313 340.49927 368.80313Q340.99927 369.61563 341.84302 369.61563Q342.53052 369.61563 343.03052 369.02188Q343.54614 368.42813 343.54614 367.225Q343.54614 366.00626 343.06177 365.42813Q342.5774 364.85 341.8899 364.85Q341.2024 364.85 340.68677 365.45938Q340.18677 366.05313 340.18677 367.19376Z" fill-rule="nonzero"/><path fill="#000000" d="M484.06323 368.1L485.1726 368.00626Q485.2976 368.81876 485.7351 369.225Q486.18823 369.63126 486.82886 369.63126Q487.57886 369.63126 488.1101 369.05313Q488.64136 368.475 488.64136 367.5375Q488.64136 366.63126 488.12573 366.11563Q487.62573 365.58438 486.7976 365.58438Q486.2976 365.58438 485.87573 365.81876Q485.46948 366.05313 485.2351 366.4125L484.25073 366.2875L485.07886 361.88126L489.3601 361.88126L489.3601 362.88126L485.9226 362.88126L485.46948 365.19376Q486.2351 364.64688 487.07886 364.64688Q488.20386 364.64688 488.96948 365.42813Q489.75073 366.20938 489.75073 367.44376Q489.75073 368.6 489.07886 369.45938Q488.25073 370.49063 486.82886 370.49063Q485.65698 370.49063 484.90698 369.83438Q484.1726 369.17813 484.06323 368.1ZM495.03198 370.35L493.9851 370.35L493.9851 363.63126Q493.59448 363.99063 492.96948 364.36563Q492.3601 364.725 491.87573 364.89688L491.87573 363.88126Q492.75073 363.45938 493.40698 362.88126Q494.07886 362.2875 494.3601 361.725L495.03198 361.725L495.03198 370.35ZM503.6101 369.33438L503.6101 370.35L497.9226 370.35Q497.9226 369.975 498.0476 369.61563Q498.26636 369.0375 498.7351 368.475Q499.21948 367.9125 500.12573 367.17813Q501.53198 366.02188 502.01636 365.35Q502.51636 364.67813 502.51636 364.08438Q502.51636 363.45938 502.06323 363.0375Q501.6101 362.6 500.89136 362.6Q500.12573 362.6 499.6726 363.05313Q499.21948 363.50626 499.20386 364.31876L498.12573 364.20938Q498.2351 362.99063 498.95386 362.36563Q499.68823 361.725 500.9226 361.725Q502.15698 361.725 502.87573 362.4125Q503.59448 363.1 503.59448 364.11563Q503.59448 364.63126 503.37573 365.13126Q503.1726 365.61563 502.6726 366.17813Q502.18823 366.725 501.06323 367.67813Q500.1101 368.475 499.82886 368.77188Q499.56323 369.05313 499.39136 369.33438L503.6101 369.33438ZM509.32886 370.35L508.34448 370.35L508.34448 361.75626L509.40698 361.75626L509.40698 364.81876Q510.07886 363.99063 511.1101 363.99063Q511.68823 363.99063 512.18823 364.225Q512.70386 364.44376 513.032 364.86563Q513.37573 365.2875 513.56323 365.88126Q513.75073 366.475 513.75073 367.14688Q513.75073 368.74063 512.95386 369.61563Q512.157 370.49063 511.06323 370.49063Q509.95386 370.49063 509.32886 369.56876L509.32886 370.35ZM509.31323 367.19376Q509.31323 368.30313 509.62573 368.80313Q510.12573 369.61563 510.96948 369.61563Q511.65698 369.61563 512.157 369.02188Q512.6726 368.42813 512.6726 367.225Q512.6726 366.00626 512.18823 365.42813Q511.70386 364.85 511.01636 364.85Q510.32886 364.85 509.81323 365.45938Q509.31323 366.05313 509.31323 367.19376Z" fill-rule="nonzero"/><path fill="#000000" d="M653.25214 362.88126L653.25214 361.86563L658.81464 361.86563L658.81464 362.69376Q658.00214 363.56876 657.18964 365.02188Q656.39276 366.45938 655.95526 367.99063Q655.62714 369.06876 655.549 370.35L654.45526 370.35Q654.4709 369.33438 654.8459 367.89688Q655.2365 366.45938 655.93964 365.13126Q656.6584 363.80313 657.4709 362.88126L653.25214 362.88126ZM665.6584 363.86563L664.6115 363.94376Q664.4709 363.31876 664.2209 363.0375Q663.7834 362.58438 663.1584 362.58438Q662.6584 362.58438 662.26776 362.86563Q661.7834 363.24063 661.4865 363.94376Q661.20526 364.63126 661.18964 365.9125Q661.56464 365.33438 662.1115 365.05313Q662.674 364.77188 663.2834 364.77188Q664.33026 364.77188 665.06464 365.55313Q665.81464 366.33438 665.81464 367.55313Q665.81464 368.36563 665.45526 369.06876Q665.1115 369.75626 664.50214 370.13126Q663.89276 370.49063 663.12714 370.49063Q661.799 370.49063 660.9709 369.52188Q660.14276 368.55313 660.14276 366.33438Q660.14276 363.83438 661.06464 362.70938Q661.8615 361.725 663.2209 361.725Q664.2365 361.725 664.87714 362.30313Q665.5334 362.86563 665.6584 363.86563ZM661.3615 367.56876Q661.3615 368.11563 661.58026 368.61563Q661.81464 369.1 662.2209 369.36563Q662.64276 369.63126 663.1115 369.63126Q663.76776 369.63126 664.25214 369.1Q664.7365 368.55313 664.7365 367.63126Q664.7365 366.74063 664.25214 366.225Q663.7834 365.70938 663.06464 365.70938Q662.3459 365.70938 661.8459 366.225Q661.3615 366.74063 661.3615 367.56876ZM668.81464 365.69376Q668.1584 365.44376 667.83026 365.00626Q667.51776 364.55313 667.51776 363.94376Q667.51776 363.00626 668.18964 362.36563Q668.87714 361.725 669.9865 361.725Q671.1115 361.725 671.799 362.38126Q672.4865 363.0375 672.4865 363.975Q672.4865 364.56876 672.174 365.00626Q671.8615 365.44376 671.2209 365.69376Q672.01776 365.94376 672.424 366.52188Q672.83026 367.1 672.83026 367.89688Q672.83026 368.99063 672.049 369.74063Q671.2834 370.49063 670.00214 370.49063Q668.7365 370.49063 667.95526 369.74063Q667.174 368.99063 667.174 367.86563Q667.174 367.02188 667.5959 366.45938Q668.0334 365.89688 668.81464 365.69376ZM668.5959 363.89688Q668.5959 364.50626 668.9865 364.89688Q669.39276 365.2875 670.01776 365.2875Q670.62714 365.2875 671.01776 364.9125Q671.4084 364.52188 671.4084 363.95938Q671.4084 363.38126 671.00214 362.99063Q670.5959 362.58438 670.00214 362.58438Q669.39276 362.58438 668.9865 362.975Q668.5959 363.36563 668.5959 363.89688ZM668.26776 367.86563Q668.26776 368.31876 668.4709 368.74063Q668.68964 369.1625 669.1115 369.39688Q669.5334 369.63126 670.01776 369.63126Q670.76776 369.63126 671.25214 369.14688Q671.75214 368.6625 671.75214 367.9125Q671.75214 367.14688 671.25214 366.64688Q670.75214 366.14688 669.9865 366.14688Q669.2365 366.14688 668.75214 366.64688Q668.26776 367.13126 668.26776 367.86563ZM678.45526 370.35L677.4709 370.35L677.4709 361.75626L678.5334 361.75626L678.5334 364.81876Q679.20526 363.99063 680.2365 363.99063Q680.81464 363.99063 681.31464 364.225Q681.83026 364.44376 682.1584 364.86563Q682.50214 365.2875 682.68964 365.88126Q682.87714 366.475 682.87714 367.14688Q682.87714 368.74063 682.08026 369.61563Q681.2834 370.49063 680.18964 370.49063Q679.08026 370.49063 678.45526 369.56876L678.45526 370.35ZM678.43964 367.19376Q678.43964 368.30313 678.75214 368.80313Q679.25214 369.61563 680.0959 369.61563Q680.7834 369.61563 681.2834 369.02188Q681.799 368.42813 681.799 367.225Q681.799 366.00626 681.31464 365.42813Q680.83026 364.85 680.14276 364.85Q679.45526 364.85 678.93964 365.45938Q678.43964 366.05313 678.43964 367.19376Z" fill-rule="nonzero"/><path fill="#9fc5e8" d="M293.66998 44.85283C293.66998 44.300545 294.1177 43.85283 294.66998 43.85283L304.66998 43.85283C305.22226 43.85283 305.66998 44.300545 305.66998 44.85283L305.66998 54.85283C305.66998 55.405113 305.22226 55.85283 304.66998 55.85283L294.66998 55.85283C294.1177 55.85283 293.66998 55.405113 293.66998 54.85283Z" fill-rule="nonzero"/><path fill="#1a1a1a" d="M318.6231 50.47783L318.6231 49.47783L322.2481 49.462204L322.2481 52.649704Q321.41998 53.32158 320.52936 53.66533Q319.63873 53.993454 318.70123 53.993454Q317.4356 53.993454 316.38873 53.462204Q315.35748 52.91533 314.82623 51.899704Q314.3106 50.868454 314.3106 49.60283Q314.3106 48.337204 314.82623 47.25908Q315.35748 46.16533 316.34186 45.649704Q317.32623 45.118454 318.60748 45.118454Q319.54498 45.118454 320.29498 45.41533Q321.04498 45.712204 321.46686 46.25908Q321.90436 46.79033 322.1231 47.66533L321.10748 47.94658Q320.90436 47.29033 320.60748 46.91533Q320.32623 46.54033 319.79498 46.32158Q319.26373 46.087204 318.6231 46.087204Q317.84186 46.087204 317.26373 46.32158Q316.70123 46.555954 316.34186 46.94658Q315.9981 47.337204 315.8106 47.805954Q315.48248 48.60283 315.48248 49.524704Q315.48248 50.680954 315.8731 51.462204Q316.27936 52.22783 317.02936 52.60283Q317.77936 52.97783 318.63873 52.97783Q319.3731 52.97783 320.07623 52.69658Q320.77936 52.399704 321.13873 52.087204L321.13873 50.47783L318.6231 50.47783ZM323.07623 50.743454Q323.07623 49.00908 324.02936 48.180954Q324.82623 47.493454 325.98248 47.493454Q327.26373 47.493454 328.07623 48.337204Q328.90436 49.16533 328.90436 50.649704Q328.90436 51.85283 328.54498 52.54033Q328.1856 53.22783 327.48248 53.618454Q326.79498 53.993454 325.98248 53.993454Q324.6856 53.993454 323.8731 53.16533Q323.07623 52.32158 323.07623 50.743454ZM324.15436 50.743454Q324.15436 51.930954 324.66998 52.524704Q325.20123 53.118454 325.98248 53.118454Q326.77936 53.118454 327.29498 52.524704Q327.8106 51.930954 327.8106 50.712204Q327.8106 49.555954 327.27936 48.962204Q326.76373 48.368454 325.98248 48.368454Q325.20123 48.368454 324.66998 48.962204Q324.15436 49.54033 324.15436 50.743454Z" fill-rule="nonzero"/><path fill="#0b5394" d="M345.66998 44.85283C345.66998 44.300545 346.1177 43.85283 346.66998 43.85283L356.66998 43.85283C357.22226 43.85283 357.66998 44.300545 357.66998 44.85283L357.66998 54.85283C357.66998 55.405113 357.22226 55.85283 356.66998 55.85283L346.66998 55.85283C346.1177 55.85283 345.66998 55.405113 345.66998 54.85283Z" fill-rule="nonzero"/><path fill="#1a1a1a" d="M370.6231 50.47783L370.6231 49.47783L374.2481 49.462204L374.2481 52.649704Q373.41998 53.32158 372.52936 53.66533Q371.63873 53.993454 370.70123 53.993454Q369.4356 53.993454 368.38873 53.462204Q367.35748 52.91533 366.82623 51.899704Q366.3106 50.868454 366.3106 49.60283Q366.3106 48.337204 366.82623 47.25908Q367.35748 46.16533 368.34186 45.649704Q369.32623 45.118454 370.60748 45.118454Q371.54498 45.118454 372.29498 45.41533Q373.04498 45.712204 373.46686 46.25908Q373.90436 46.79033 374.1231 47.66533L373.10748 47.94658Q372.90436 47.29033 372.60748 46.91533Q372.32623 46.54033 371.79498 46.32158Q371.26373 46.087204 370.6231 46.087204Q369.84186 46.087204 369.26373 46.32158Q368.70123 46.555954 368.34186 46.94658Q367.9981 47.337204 367.8106 47.805954Q367.48248 48.60283 367.48248 49.524704Q367.48248 50.680954 367.8731 51.462204Q368.27936 52.22783 369.02936 52.60283Q369.77936 52.97783 370.63873 52.97783Q371.3731 52.97783 372.07623 52.69658Q372.77936 52.399704 373.13873 52.087204L373.13873 50.47783L370.6231 50.47783ZM375.07623 50.743454Q375.07623 49.00908 376.02936 48.180954Q376.82623 47.493454 377.98248 47.493454Q379.26373 47.493454 380.07623 48.337204Q380.90436 49.16533 380.90436 50.649704Q380.90436 51.85283 380.54498 52.54033Q380.1856 53.22783 379.48248 53.618454Q378.79498 53.993454 377.98248 53.993454Q376.6856 53.993454 375.8731 53.16533Q375.07623 52.32158 375.07623 50.743454ZM376.15436 50.743454Q376.15436 51.930954 376.66998 52.524704Q377.20123 53.118454 377.98248 53.118454Q378.77936 53.118454 379.29498 52.524704Q379.8106 51.930954 379.8106 50.712204Q379.8106 49.555954 379.27936 48.962204Q378.76373 48.368454 377.98248 48.368454Q377.20123 48.368454 376.66998 48.962204Q376.15436 49.54033 376.15436 50.743454ZM387.48248 56.38408Q386.60748 55.274704 385.9981 53.805954Q385.40436 52.32158 385.40436 50.743454Q385.40436 49.35283 385.84186 48.07158Q386.3731 46.587204 387.48248 45.118454L388.23248 45.118454Q387.52936 46.337204 387.29498 46.85283Q386.9356 47.66533 386.73248 48.54033Q386.48248 49.63408 386.48248 50.743454Q386.48248 53.57158 388.23248 56.38408L387.48248 56.38408ZM389.60748 53.85283L389.60748 45.25908L393.41998 45.25908Q394.57623 45.25908 395.16998 45.493454Q395.76373 45.72783 396.1231 46.32158Q396.48248 46.899704 396.48248 47.60283Q396.48248 48.524704 395.88873 49.149704Q395.29498 49.774704 394.0606 49.94658Q394.51373 50.16533 394.7481 50.368454Q395.2481 50.82158 395.6856 51.50908L397.1856 53.85283L395.7481 53.85283L394.6231 52.07158Q394.1231 51.29033 393.79498 50.88408Q393.48248 50.47783 393.21686 50.32158Q392.96686 50.149704 392.70123 50.07158Q392.51373 50.04033 392.07623 50.04033L390.7481 50.04033L390.7481 53.85283L389.60748 53.85283ZM390.7481 49.055954L393.20123 49.055954Q393.96686 49.055954 394.40436 48.899704Q394.85748 48.72783 395.07623 48.38408Q395.3106 48.024704 395.3106 47.60283Q395.3106 46.993454 394.85748 46.60283Q394.41998 46.212204 393.46686 46.212204L390.7481 46.212204L390.7481 49.055954ZM402.71686 51.85283L403.8106 51.97783Q403.5606 52.930954 402.85748 53.462204Q402.15436 53.993454 401.07623 53.993454Q399.71686 53.993454 398.90436 53.149704Q398.10748 52.305954 398.10748 50.79033Q398.10748 49.22783 398.91998 48.368454Q399.73248 47.493454 401.01373 47.493454Q402.26373 47.493454 403.04498 48.337204Q403.84186 49.180954 403.84186 50.72783Q403.84186 50.82158 403.84186 51.00908L399.20123 51.00908Q399.26373 52.04033 399.77936 52.587204Q400.29498 53.118454 401.07623 53.118454Q401.65436 53.118454 402.0606 52.82158Q402.48248 52.50908 402.71686 51.85283ZM399.26373 50.149704L402.73248 50.149704Q402.66998 49.35283 402.34186 48.962204Q401.82623 48.35283 401.02936 48.35283Q400.29498 48.35283 399.79498 48.837204Q399.3106 49.32158 399.26373 50.149704ZM405.04498 51.993454L406.07623 51.837204Q406.16998 52.462204 406.5606 52.79033Q406.96686 53.118454 407.70123 53.118454Q408.41998 53.118454 408.76373 52.837204Q409.1231 52.54033 409.1231 52.13408Q409.1231 51.774704 408.8106 51.57158Q408.59186 51.430954 407.73248 51.212204Q406.57623 50.91533 406.1231 50.712204Q405.6856 50.493454 405.45123 50.118454Q405.21686 49.743454 405.21686 49.274704Q405.21686 48.868454 405.40436 48.50908Q405.59186 48.149704 405.91998 47.91533Q406.16998 47.743454 406.59186 47.618454Q407.01373 47.493454 407.51373 47.493454Q408.23248 47.493454 408.77936 47.712204Q409.34186 47.91533 409.60748 48.274704Q409.8731 48.63408 409.96686 49.22783L408.9356 49.368454Q408.8731 48.899704 408.52936 48.63408Q408.20123 48.35283 407.57623 48.35283Q406.85748 48.35283 406.54498 48.60283Q406.23248 48.837204 406.23248 49.16533Q406.23248 49.368454 406.35748 49.524704Q406.4981 49.69658 406.76373 49.805954Q406.91998 49.868454 407.70123 50.07158Q408.82623 50.38408 409.26373 50.57158Q409.70123 50.75908 409.95123 51.118454Q410.20123 51.47783 410.20123 52.024704Q410.20123 52.555954 409.88873 53.024704Q409.59186 53.47783 409.01373 53.743454Q408.4356 53.993454 407.70123 53.993454Q406.48248 53.993454 405.84186 53.493454Q405.21686 52.97783 405.04498 51.993454ZM415.71686 51.85283L416.8106 51.97783Q416.5606 52.930954 415.85748 53.462204Q415.15436 53.993454 414.07623 53.993454Q412.71686 53.993454 411.90436 53.149704Q411.10748 52.305954 411.10748 50.79033Q411.10748 49.22783 411.91998 48.368454Q412.73248 47.493454 414.01373 47.493454Q415.26373 47.493454 416.04498 48.337204Q416.84186 49.180954 416.84186 50.72783Q416.84186 50.82158 416.84186 51.00908L412.20123 51.00908Q412.26373 52.04033 412.77936 52.587204Q413.29498 53.118454 414.07623 53.118454Q414.65436 53.118454 415.0606 52.82158Q415.48248 52.50908 415.71686 51.85283ZM412.26373 50.149704L415.73248 50.149704Q415.66998 49.35283 415.34186 48.962204Q414.82623 48.35283 414.02936 48.35283Q413.29498 48.35283 412.79498 48.837204Q412.3106 49.32158 412.26373 50.149704ZM420.76373 52.91533L420.91998 53.837204Q420.46686 53.930954 420.1231 53.930954Q419.54498 53.930954 419.23248 53.75908Q418.91998 53.57158 418.77936 53.274704Q418.65436 52.97783 418.65436 52.024704L418.65436 48.44658L417.88873 48.44658L417.88873 47.63408L418.65436 47.63408L418.65436 46.087204L419.70123 45.462204L419.70123 47.63408L420.76373 47.63408L420.76373 48.44658L419.70123 48.44658L419.70123 52.087204Q419.70123 52.54033 419.7481 52.66533Q419.8106 52.79033 419.9356 52.868454Q420.0606 52.94658 420.29498 52.94658Q420.48248 52.94658 420.76373 52.91533ZM422.15436 56.38408L421.40436 56.38408Q423.15436 53.57158 423.15436 50.743454Q423.15436 49.649704 422.90436 48.555954Q422.70123 47.680954 422.34186 46.868454Q422.10748 46.35283 421.40436 45.118454L422.15436 45.118454Q423.2481 46.587204 423.77936 48.07158Q424.23248 49.35283 424.23248 50.743454Q424.23248 52.32158 423.6231 53.805954Q423.01373 55.274704 422.15436 56.38408Z" fill-rule="nonzero"/><path fill="#990000" d="M440.66998 44.85283C440.66998 44.300545 441.1177 43.85283 441.66998 43.85283L451.66998 43.85283C452.22226 43.85283 452.66998 44.300545 452.66998 44.85283L452.66998 54.85283C452.66998 55.405113 452.22226 55.85283 451.66998 55.85283L441.66998 55.85283C441.1177 55.85283 440.66998 55.405113 440.66998 54.85283Z" fill-rule="nonzero"/><path fill="#1a1a1a" d="M461.60748 53.85283L461.60748 45.25908L465.41998 45.25908Q466.57623 45.25908 467.16998 45.493454Q467.76373 45.72783 468.1231 46.32158Q468.48248 46.899704 468.48248 47.60283Q468.48248 48.524704 467.88873 49.149704Q467.29498 49.774704 466.0606 49.94658Q466.51373 50.16533 466.7481 50.368454Q467.2481 50.82158 467.6856 51.50908L469.1856 53.85283L467.7481 53.85283L466.6231 52.07158Q466.1231 51.29033 465.79498 50.88408Q465.48248 50.47783 465.21686 50.32158Q464.96686 50.149704 464.70123 50.07158Q464.51373 50.04033 464.07623 50.04033L462.7481 50.04033L462.7481 53.85283L461.60748 53.85283ZM462.7481 49.055954L465.20123 49.055954Q465.96686 49.055954 466.40436 48.899704Q466.85748 48.72783 467.07623 48.38408Q467.3106 48.024704 467.3106 47.60283Q467.3106 46.993454 466.85748 46.60283Q466.41998 46.212204 465.46686 46.212204L462.7481 46.212204L462.7481 49.055954ZM474.54498 53.85283L474.54498 52.930954Q473.8106 53.993454 472.5606 53.993454Q472.01373 53.993454 471.52936 53.79033Q471.0606 53.57158 470.82623 53.25908Q470.59186 52.930954 470.4981 52.462204Q470.4356 52.16533 470.4356 51.47783L470.4356 47.63408L471.4981 47.63408L471.4981 51.087204Q471.4981 51.899704 471.5606 52.19658Q471.65436 52.60283 471.96686 52.85283Q472.29498 53.087204 472.77936 53.087204Q473.2481 53.087204 473.65436 52.85283Q474.07623 52.60283 474.2481 52.180954Q474.4356 51.75908 474.4356 50.962204L474.4356 47.63408L475.48248 47.63408L475.48248 53.85283L474.54498 53.85283ZM477.04498 51.993454L478.07623 51.837204Q478.16998 52.462204 478.5606 52.79033Q478.96686 53.118454 479.70123 53.118454Q480.41998 53.118454 480.76373 52.837204Q481.1231 52.54033 481.1231 52.13408Q481.1231 51.774704 480.8106 51.57158Q480.59186 51.430954 479.73248 51.212204Q478.57623 50.91533 478.1231 50.712204Q477.6856 50.493454 477.45123 50.118454Q477.21686 49.743454 477.21686 49.274704Q477.21686 48.868454 477.40436 48.50908Q477.59186 48.149704 477.91998 47.91533Q478.16998 47.743454 478.59186 47.618454Q479.01373 47.493454 479.51373 47.493454Q480.23248 47.493454 480.77936 47.712204Q481.34186 47.91533 481.60748 48.274704Q481.8731 48.63408 481.96686 49.22783L480.9356 49.368454Q480.8731 48.899704 480.52936 48.63408Q480.20123 48.35283 479.57623 48.35283Q478.85748 48.35283 478.54498 48.60283Q478.23248 48.837204 478.23248 49.16533Q478.23248 49.368454 478.35748 49.524704Q478.4981 49.69658 478.76373 49.805954Q478.91998 49.868454 479.70123 50.07158Q480.82623 50.38408 481.26373 50.57158Q481.70123 50.75908 481.95123 51.118454Q482.20123 51.47783 482.20123 52.024704Q482.20123 52.555954 481.88873 53.024704Q481.59186 53.47783 481.01373 53.743454Q480.4356 53.993454 479.70123 53.993454Q478.48248 53.993454 477.84186 53.493454Q477.21686 52.97783 477.04498 51.993454ZM485.76373 52.91533L485.91998 53.837204Q485.46686 53.930954 485.1231 53.930954Q484.54498 53.930954 484.23248 53.75908Q483.91998 53.57158 483.77936 53.274704Q483.65436 52.97783 483.65436 52.024704L483.65436 48.44658L482.88873 48.44658L482.88873 47.63408L483.65436 47.63408L483.65436 46.087204L484.70123 45.462204L484.70123 47.63408L485.76373 47.63408L485.76373 48.44658L484.70123 48.44658L484.70123 52.087204Q484.70123 52.54033 484.7481 52.66533Q484.8106 52.79033 484.9356 52.868454Q485.0606 52.94658 485.29498 52.94658Q485.48248 52.94658 485.76373 52.91533Z" fill-rule="nonzero"/><path fill="#757575" d="M21.259375 38.65L21.259375 24.337502L23.15 24.337502L23.15 30.212502L30.5875 30.212502L30.5875 24.337502L32.478127 24.337502L32.478127 38.65L30.5875 38.65L30.5875 31.900002L23.15 31.900002L23.15 38.65L21.259375 38.65ZM41.74375 37.36875Q40.759377 38.196877 39.853127 38.540627Q38.946877 38.884377 37.915627 38.884377Q36.2125 38.884377 35.290627 38.05625Q34.36875 37.2125 34.36875 35.915627Q34.36875 35.15 34.7125 34.525Q35.071877 33.9 35.634377 33.525Q36.196877 33.134377 36.9 32.93125Q37.415627 32.80625 38.4625 32.665627Q40.5875 32.415627 41.5875 32.071877Q41.603127 31.712502 41.603127 31.603127Q41.603127 30.540627 41.103127 30.087502Q40.43125 29.493752 39.103127 29.493752Q37.853127 29.493752 37.259377 29.931252Q36.68125 30.368752 36.4 31.478127L34.68125 31.243752Q34.915627 30.134377 35.446877 29.462502Q35.978127 28.775002 36.99375 28.415627Q38.009377 28.040627 39.353127 28.040627Q40.68125 28.040627 41.509377 28.353127Q42.3375 28.665627 42.728127 29.150002Q43.11875 29.618752 43.275 30.337502Q43.36875 30.790627 43.36875 31.962502L43.36875 34.30625Q43.36875 36.759377 43.478127 37.415627Q43.5875 38.05625 43.93125 38.65L42.0875 38.65Q41.821877 38.103127 41.74375 37.36875ZM41.5875 33.446877Q40.634377 33.8375 38.7125 34.103127Q37.634377 34.259377 37.18125 34.4625Q36.74375 34.65 36.49375 35.025Q36.24375 35.4 36.24375 35.86875Q36.24375 36.571877 36.775 37.040627Q37.30625 37.509377 38.3375 37.509377Q39.353127 37.509377 40.134377 37.071877Q40.93125 36.61875 41.30625 35.853127Q41.5875 35.24375 41.5875 34.0875L41.5875 33.446877ZM45.259377 35.55625L47.009377 35.275Q47.15 36.321877 47.821877 36.884377Q48.49375 37.43125 49.696877 37.43125Q50.9 37.43125 51.478127 36.946877Q52.071877 36.446877 52.071877 35.790627Q52.071877 35.196877 51.55625 34.853127Q51.196877 34.61875 49.759377 34.259377Q47.821877 33.759377 47.071877 33.415627Q46.3375 33.05625 45.946877 32.43125Q45.55625 31.790627 45.55625 31.025002Q45.55625 30.337502 45.86875 29.743752Q46.196877 29.150002 46.74375 28.759377Q47.15 28.462502 47.853127 28.259377Q48.571877 28.040627 49.384377 28.040627Q50.603127 28.040627 51.525 28.400002Q52.446877 28.743752 52.884377 29.353127Q53.321877 29.946877 53.49375 30.946877L51.775 31.181252Q51.65 30.384377 51.0875 29.946877Q50.525 29.493752 49.509377 29.493752Q48.290627 29.493752 47.775 29.900002Q47.259377 30.290627 47.259377 30.821877Q47.259377 31.165627 47.478127 31.446877Q47.68125 31.728127 48.15 31.915627Q48.415627 32.009377 49.696877 32.353127Q51.571877 32.853127 52.30625 33.18125Q53.040627 33.49375 53.4625 34.103127Q53.884377 34.696877 53.884377 35.603127Q53.884377 36.478127 53.36875 37.259377Q52.853127 38.040627 51.884377 38.4625Q50.915627 38.884377 49.696877 38.884377Q47.68125 38.884377 46.61875 38.040627Q45.55625 37.196877 45.259377 35.55625ZM55.9625 38.65L55.9625 24.337502L57.728127 24.337502L57.728127 29.462502Q58.9625 28.040627 60.8375 28.040627Q61.978127 28.040627 62.821877 28.493752Q63.68125 28.946877 64.04063 29.759377Q64.41563 30.556252 64.41563 32.071877L64.41563 38.65L62.665627 38.65L62.665627 32.071877Q62.665627 30.759377 62.0875 30.165627Q61.509377 29.556252 60.478127 29.556252Q59.696877 29.556252 58.99375 29.962502Q58.30625 30.368752 58.009377 31.071877Q57.728127 31.759377 57.728127 32.978127L57.728127 38.65L55.9625 38.65ZM66.97813 26.353127L66.97813 24.337502L68.74375 24.337502L68.74375 26.353127L66.97813 26.353127ZM66.97813 38.65L66.97813 28.275002L68.74375 28.275002L68.74375 38.65L66.97813 38.65ZM70.9625 38.65L70.9625 28.275002L72.55625 28.275002L72.55625 29.759377Q73.69688 28.040627 75.85313 28.040627Q76.79063 28.040627 77.57188 28.384377Q78.36875 28.712502 78.75938 29.259377Q79.15 29.806252 79.30625 30.556252Q79.4 31.056252 79.4 32.275L79.4 38.65L77.63438 38.65L77.63438 32.3375Q77.63438 31.259377 77.43125 30.728127Q77.22813 30.196877 76.69688 29.884377Q76.18125 29.571877 75.47813 29.571877Q74.35313 29.571877 73.54063 30.290627Q72.72813 30.993752 72.72813 32.978127L72.72813 38.65L70.9625 38.65ZM81.65 39.509377L83.35313 39.759377Q83.4625 40.55625 83.94688 40.915627Q84.60313 41.4 85.74375 41.4Q86.9625 41.4 87.61875 40.915627Q88.29063 40.43125 88.525 39.55625Q88.66563 39.009377 88.65 37.290627Q87.49375 38.65 85.775 38.65Q83.63438 38.65 82.4625 37.103127Q81.29063 35.55625 81.29063 33.4Q81.29063 31.915627 81.82188 30.665627Q82.36875 29.415627 83.38438 28.728127Q84.41563 28.040627 85.79063 28.040627Q87.61875 28.040627 88.82188 29.525002L88.82188 28.275002L90.43125 28.275002L90.43125 37.24375Q90.43125 39.665627 89.93125 40.665627Q89.44688 41.68125 88.36875 42.259377Q87.30625 42.853127 85.74375 42.853127Q83.9 42.853127 82.74375 42.025Q81.60313 41.196877 81.65 39.509377ZM83.10313 33.275Q83.10313 35.321877 83.91563 36.259377Q84.72813 37.196877 85.94688 37.196877Q87.15 37.196877 87.9625 36.259377Q88.79063 35.321877 88.79063 33.3375Q88.79063 31.431252 87.94688 30.462502Q87.10313 29.493752 85.91563 29.493752Q84.74375 29.493752 83.91563 30.446877Q83.10313 31.400002 83.10313 33.275ZM98.94688 38.65L98.94688 28.275002L100.525 28.275002L100.525 29.853127Q101.13438 28.743752 101.65 28.400002Q102.16563 28.040627 102.775 28.040627Q103.66563 28.040627 104.5875 28.603127L103.97813 30.243752Q103.3375 29.853127 102.69688 29.853127Q102.11875 29.853127 101.65 30.212502Q101.19688 30.556252 100.99375 31.165627Q100.7125 32.103127 100.7125 33.2125L100.7125 38.65L98.94688 38.65ZM112.74375 37.36875Q111.75938 38.196877 110.85313 38.540627Q109.94688 38.884377 108.91563 38.884377Q107.2125 38.884377 106.29063 38.05625Q105.36875 37.2125 105.36875 35.915627Q105.36875 35.15 105.7125 34.525Q106.07188 33.9 106.63438 33.525Q107.19688 33.134377 107.9 32.93125Q108.41563 32.80625 109.4625 32.665627Q111.5875 32.415627 112.5875 32.071877Q112.60313 31.712502 112.60313 31.603127Q112.60313 30.540627 112.10313 30.087502Q111.43125 29.493752 110.10313 29.493752Q108.85313 29.493752 108.25938 29.931252Q107.68125 30.368752 107.4 31.478127L105.68125 31.243752Q105.91563 30.134377 106.44688 29.462502Q106.97813 28.775002 107.99375 28.415627Q109.00938 28.040627 110.35313 28.040627Q111.68125 28.040627 112.50938 28.353127Q113.3375 28.665627 113.72813 29.150002Q114.11875 29.618752 114.275 30.337502Q114.36875 30.790627 114.36875 31.962502L114.36875 34.30625Q114.36875 36.759377 114.47813 37.415627Q114.5875 38.05625 114.93125 38.65L113.0875 38.65Q112.82188 38.103127 112.74375 37.36875ZM112.5875 33.446877Q111.63438 33.8375 109.7125 34.103127Q108.63438 34.259377 108.18125 34.4625Q107.74375 34.65 107.49375 35.025Q107.24375 35.4 107.24375 35.86875Q107.24375 36.571877 107.775 37.040627Q108.30625 37.509377 109.3375 37.509377Q110.35313 37.509377 111.13438 37.071877Q111.93125 36.61875 112.30625 35.853127Q112.5875 35.24375 112.5875 34.0875L112.5875 33.446877ZM120.80625 37.071877L121.05625 38.634377Q120.32188 38.790627 119.72813 38.790627Q118.775 38.790627 118.24375 38.49375Q117.72813 38.18125 117.50938 37.696877Q117.29063 37.196877 117.29063 35.61875L117.29063 29.650002L116.00938 29.650002L116.00938 28.275002L117.29063 28.275002L117.29063 25.712502L119.04063 24.650002L119.04063 28.275002L120.80625 28.275002L120.80625 29.650002L119.04063 29.650002L119.04063 35.7125Q119.04063 36.4625 119.13438 36.68125Q119.22813 36.884377 119.43125 37.025Q119.65 37.15 120.04063 37.15Q120.32188 37.15 120.80625 37.071877ZM130.07187 35.30625L131.88437 35.540627Q131.4625 37.11875 130.29062 38.009377Q129.13437 38.884377 127.32188 38.884377Q125.05625 38.884377 123.7125 37.49375Q122.38438 36.0875 122.38438 33.55625Q122.38438 30.931252 123.72813 29.493752Q125.07188 28.040627 127.22813 28.040627Q129.30624 28.040627 130.61874 29.462502Q131.94687 30.868752 131.94687 33.446877Q131.94687 33.603127 131.93124 33.915627L124.19688 33.915627Q124.29063 35.61875 125.16563 36.525Q126.04063 37.43125 127.3375 37.43125Q128.30624 37.43125 128.97812 36.93125Q129.66562 36.415627 130.07187 35.30625ZM124.29063 32.4625L130.0875 32.4625Q129.97812 31.165627 129.43124 30.509377Q128.5875 29.493752 127.24375 29.493752Q126.04063 29.493752 125.2125 30.306252Q124.38438 31.103127 124.29063 32.4625ZM139.97812 26.353127L139.97812 24.337502L141.74374 24.337502L141.74374 26.353127L139.97812 26.353127ZM139.97812 38.65L139.97812 28.275002L141.74374 28.275002L141.74374 38.65L139.97812 38.65ZM143.9625 38.65L143.9625 28.275002L145.55624 28.275002L145.55624 29.759377Q146.69687 28.040627 148.85312 28.040627Q149.79062 28.040627 150.57187 28.384377Q151.36874 28.712502 151.75937 29.259377Q152.15 29.806252 152.30624 30.556252Q152.4 31.056252 152.4 32.275L152.4 38.65L150.63437 38.65L150.63437 32.3375Q150.63437 31.259377 150.43124 30.728127Q150.22812 30.196877 149.69687 29.884377Q149.18124 29.571877 148.47812 29.571877Q147.35312 29.571877 146.54062 30.290627Q145.72812 30.993752 145.72812 32.978127L145.72812 38.65L143.9625 38.65ZM167.9 33.040627L167.9 31.353127L173.9625 31.337502L173.9625 36.65Q172.55624 37.775 171.07187 38.3375Q169.5875 38.9 168.025 38.9Q165.91562 38.9 164.19687 37.99375Q162.47812 37.0875 161.5875 35.384377Q160.7125 33.665627 160.7125 31.556252Q160.7125 29.462502 161.5875 27.665627Q162.4625 25.853127 164.10312 24.978127Q165.74374 24.087502 167.88437 24.087502Q169.43124 24.087502 170.68124 24.587502Q171.94687 25.087502 172.65 25.993752Q173.36874 26.884377 173.74374 28.337502L172.04062 28.806252Q171.7125 27.712502 171.22812 27.087502Q170.75937 26.462502 169.86874 26.087502Q168.97812 25.712502 167.9 25.712502Q166.5875 25.712502 165.63437 26.103127Q164.69687 26.493752 164.11874 27.150002Q163.54062 27.790627 163.2125 28.556252Q162.66562 29.884377 162.66562 31.446877Q162.66562 33.353127 163.32187 34.65Q163.99374 35.93125 165.24374 36.55625Q166.50937 37.18125 167.91562 37.18125Q169.15 37.18125 170.32187 36.7125Q171.49374 36.24375 172.10312 35.696877L172.10312 33.040627L167.9 33.040627ZM177.11874 38.65L177.11874 24.337502L182.49374 24.337502Q184.13437 24.337502 185.11874 24.775002Q186.10312 25.196877 186.66562 26.103127Q187.22812 27.009377 187.22812 27.993752Q187.22812 28.915627 186.72812 29.728127Q186.24374 30.540627 185.22812 31.025002Q186.525 31.415627 187.22812 32.3375Q187.93124 33.24375 187.93124 34.49375Q187.93124 35.509377 187.49374 36.36875Q187.07187 37.228127 186.44687 37.696877Q185.82187 38.165627 184.88437 38.415627Q183.94687 38.65 182.57187 38.65L177.11874 38.65ZM179.00937 30.353127L182.10312 30.353127Q183.36874 30.353127 183.91562 30.181252Q184.63437 29.962502 184.99374 29.478127Q185.36874 28.978127 185.36874 28.212502Q185.36874 27.509377 185.025 26.962502Q184.68124 26.415627 184.04062 26.228127Q183.41562 26.025002 181.86874 26.025002L179.00937 26.025002L179.00937 30.353127ZM179.00937 36.9625L182.57187 36.9625Q183.49374 36.9625 183.86874 36.884377Q184.525 36.775 184.9625 36.509377Q185.4 36.228127 185.68124 35.7125Q185.9625 35.18125 185.9625 34.49375Q185.9625 33.696877 185.55624 33.103127Q185.15 32.509377 184.41562 32.275Q183.68124 32.040627 182.32187 32.040627L179.00937 32.040627L179.00937 36.9625ZM188.65 38.9L192.80624 24.087502L194.2125 24.087502L190.07187 38.9L188.65 38.9ZM195.25937 35.55625L197.00937 35.275Q197.15 36.321877 197.82187 36.884377Q198.49374 37.43125 199.69687 37.43125Q200.9 37.43125 201.47812 36.946877Q202.07187 36.446877 202.07187 35.790627Q202.07187 35.196877 201.55624 34.853127Q201.19687 34.61875 199.75937 34.259377Q197.82187 33.759377 197.07187 33.415627Q196.3375 33.05625 195.94687 32.43125Q195.55624 31.790627 195.55624 31.025002Q195.55624 30.337502 195.86874 29.743752Q196.19687 29.150002 196.74374 28.759377Q197.15 28.462502 197.85312 28.259377Q198.57187 28.040627 199.38437 28.040627Q200.60312 28.040627 201.525 28.400002Q202.44687 28.743752 202.88437 29.353127Q203.32187 29.946877 203.49374 30.946877L201.775 31.181252Q201.65 30.384377 201.0875 29.946877Q200.525 29.493752 199.50937 29.493752Q198.29062 29.493752 197.775 29.900002Q197.25937 30.290627 197.25937 30.821877Q197.25937 31.165627 197.47812 31.446877Q197.68124 31.728127 198.15 31.915627Q198.41562 32.009377 199.69687 32.353127Q201.57187 32.853127 202.30624 33.18125Q203.04062 33.49375 203.4625 34.103127Q203.88437 34.696877 203.88437 35.603127Q203.88437 36.478127 203.36874 37.259377Q202.85312 38.040627 201.88437 38.4625Q200.91562 38.884377 199.69687 38.884377Q197.68124 38.884377 196.61874 38.040627Q195.55624 37.196877 195.25937 35.55625ZM213.07187 35.30625L214.88437 35.540627Q214.4625 37.11875 213.29062 38.009377Q212.13437 38.884377 210.32187 38.884377Q208.05624 38.884377 206.7125 37.49375Q205.38437 36.0875 205.38437 33.55625Q205.38437 30.931252 206.72812 29.493752Q208.07187 28.040627 210.22812 28.040627Q212.30624 28.040627 213.61874 29.462502Q214.94687 30.868752 214.94687 33.446877Q214.94687 33.603127 214.93124 33.915627L207.19687 33.915627Q207.29062 35.61875 208.16562 36.525Q209.04062 37.43125 210.3375 37.43125Q211.30624 37.43125 211.97812 36.93125Q212.66562 36.415627 213.07187 35.30625ZM207.29062 32.4625L213.0875 32.4625Q212.97812 31.165627 212.43124 30.509377Q211.5875 29.493752 210.24374 29.493752Q209.04062 29.493752 208.2125 30.306252Q207.38437 31.103127 207.29062 32.4625ZM223.74374 34.853127L225.4625 35.071877Q225.18124 36.86875 224.00937 37.884377Q222.85312 38.884377 221.15 38.884377Q219.025 38.884377 217.72812 37.49375Q216.43124 36.103127 216.43124 33.509377Q216.43124 31.821877 216.97812 30.571877Q217.54062 29.306252 218.68124 28.681252Q219.82187 28.040627 221.16562 28.040627Q222.85312 28.040627 223.91562 28.900002Q224.99374 29.759377 225.30624 31.321877L223.5875 31.587502Q223.35312 30.540627 222.72812 30.025002Q222.10312 29.493752 221.22812 29.493752Q219.9 29.493752 219.07187 30.446877Q218.24374 31.400002 218.24374 33.446877Q218.24374 35.540627 219.04062 36.49375Q219.8375 37.43125 221.13437 37.43125Q222.16562 37.43125 222.85312 36.80625Q223.55624 36.165627 223.74374 34.853127ZM233.38437 38.65L233.38437 29.650002L231.8375 29.650002L231.8375 28.275002L233.38437 28.275002L233.38437 27.181252Q233.38437 26.134377 233.57187 25.618752Q233.82187 24.931252 234.4625 24.509377Q235.10312 24.087502 236.25937 24.087502Q237.00937 24.087502 237.9 24.259377L237.63437 25.790627Q237.0875 25.696877 236.60312 25.696877Q235.80624 25.696877 235.4625 26.040627Q235.13437 26.384377 235.13437 27.321877L235.13437 28.275002L237.16562 28.275002L237.16562 29.650002L235.13437 29.650002L235.13437 38.65L233.38437 38.65ZM238.32187 33.4625Q238.32187 30.587502 239.91562 29.196877Q241.25937 28.040627 243.18124 28.040627Q245.32187 28.040627 246.66562 29.446877Q248.025 30.853127 248.025 33.321877Q248.025 35.321877 247.43124 36.478127Q246.8375 37.61875 245.68124 38.259377Q244.54062 38.884377 243.18124 38.884377Q240.99374 38.884377 239.65 37.49375Q238.32187 36.0875 238.32187 33.4625ZM240.11874 33.4625Q240.11874 35.4625 240.97812 36.446877Q241.85312 37.43125 243.18124 37.43125Q244.49374 37.43125 245.35312 36.446877Q246.22812 35.446877 246.22812 33.4Q246.22812 31.478127 245.35312 30.493752Q244.47812 29.493752 243.18124 29.493752Q241.85312 29.493752 240.97812 30.493752Q240.11874 31.478127 240.11874 33.4625ZM249.94687 38.65L249.94687 28.275002L251.525 28.275002L251.525 29.853127Q252.13437 28.743752 252.65 28.400002Q253.16562 28.040627 253.775 28.040627Q254.66562 28.040627 255.5875 28.603127L254.97812 30.243752Q254.3375 29.853127 253.69687 29.853127Q253.11874 29.853127 252.65 30.212502Q252.19687 30.556252 251.99374 31.165627Q251.7125 32.103127 251.7125 33.2125L251.7125 38.65L249.94687 38.65ZM262.97812 26.353127L262.97812 24.337502L264.74374 24.337502L264.74374 26.353127L262.97812 26.353127ZM262.97812 38.65L262.97812 28.275002L264.74374 28.275002L264.74374 38.65L262.97812 38.65ZM266.9625 38.65L266.9625 28.275002L268.55624 28.275002L268.55624 29.759377Q269.69687 28.040627 271.85312 28.040627Q272.79062 28.040627 273.57187 28.384377Q274.36874 28.712502 274.75937 29.259377Q275.15 29.806252 275.30624 30.556252Q275.4 31.056252 275.4 32.275L275.4 38.65L273.63437 38.65L273.63437 32.3375Q273.63437 31.259377 273.43124 30.728127Q273.22812 30.196877 272.69687 29.884377Q272.18124 29.571877 271.47812 29.571877Q270.35312 29.571877 269.54062 30.290627Q268.72812 30.993752 268.72812 32.978127L268.72812 38.65L266.9625 38.65ZM277.9625 42.61875L277.9625 28.275002L279.57187 28.275002L279.57187 29.618752Q280.13437 28.837502 280.8375 28.446877Q281.55624 28.040627 282.57187 28.040627Q283.9 28.040627 284.91562 28.728127Q285.93124 29.415627 286.44687 30.665627Q286.97812 31.900002 286.97812 33.384377Q286.97812 34.978127 286.4 36.259377Q285.8375 37.525 284.74374 38.2125Q283.65 38.884377 282.44687 38.884377Q281.57187 38.884377 280.86874 38.509377Q280.18124 38.134377 279.72812 37.571877L279.72812 42.61875L277.9625 42.61875ZM279.55624 33.525Q279.55624 35.525 280.36874 36.478127Q281.18124 37.43125 282.3375 37.43125Q283.50937 37.43125 284.3375 36.446877Q285.18124 35.4625 285.18124 33.36875Q285.18124 31.400002 284.35312 30.415627Q283.54062 29.415627 282.41562 29.415627Q281.29062 29.415627 280.41562 30.478127Q279.55624 31.525002 279.55624 33.525ZM295.75937 38.65L295.75937 37.11875Q294.55624 38.884377 292.47812 38.884377Q291.55624 38.884377 290.75937 38.540627Q289.9625 38.18125 289.57187 37.65Q289.19687 37.11875 289.04062 36.3375Q288.93124 35.821877 288.93124 34.696877L288.93124 28.275002L290.68124 28.275002L290.68124 34.025Q290.68124 35.4 290.79062 35.884377Q290.9625 36.571877 291.49374 36.978127Q292.04062 37.36875 292.82187 37.36875Q293.61874 37.36875 294.30624 36.9625Q295.00937 36.55625 295.29062 35.86875Q295.5875 35.165627 295.5875 33.8375L295.5875 28.275002L297.3375 28.275002L297.3375 38.65L295.75937 38.65ZM303.80624 37.071877L304.05624 38.634377Q303.32187 38.790627 302.72812 38.790627Q301.775 38.790627 301.24374 38.49375Q300.72812 38.18125 300.50937 37.696877Q300.29062 37.196877 300.29062 35.61875L300.29062 29.650002L299.00937 29.650002L299.00937 28.275002L300.29062 28.275002L300.29062 25.712502L302.04062 24.650002L302.04062 28.275002L303.80624 28.275002L303.80624 29.650002L302.04062 29.650002L302.04062 35.7125Q302.04062 36.4625 302.13437 36.68125Q302.22812 36.884377 302.43124 37.025Q302.65 37.15 303.04062 37.15Q303.32187 37.15 303.80624 37.071877ZM311.25937 35.55625L313.00937 35.275Q313.15 36.321877 313.82187 36.884377Q314.49374 37.43125 315.69687 37.43125Q316.9 37.43125 317.47812 36.946877Q318.07187 36.446877 318.07187 35.790627Q318.07187 35.196877 317.55624 34.853127Q317.19687 34.61875 315.75937 34.259377Q313.82187 33.759377 313.07187 33.415627Q312.3375 33.05625 311.94687 32.43125Q311.55624 31.790627 311.55624 31.025002Q311.55624 30.337502 311.86874 29.743752Q312.19687 29.150002 312.74374 28.759377Q313.15 28.462502 313.85312 28.259377Q314.57187 28.040627 315.38437 28.040627Q316.60312 28.040627 317.525 28.400002Q318.44687 28.743752 318.88437 29.353127Q319.32187 29.946877 319.49374 30.946877L317.775 31.181252Q317.65 30.384377 317.0875 29.946877Q316.525 29.493752 315.50937 29.493752Q314.29062 29.493752 313.775 29.900002Q313.25937 30.290627 313.25937 30.821877Q313.25937 31.165627 313.47812 31.446877Q313.68124 31.728127 314.15 31.915627Q314.41562 32.009377 315.69687 32.353127Q317.57187 32.853127 318.30624 33.18125Q319.04062 33.49375 319.4625 34.103127Q319.88437 34.696877 319.88437 35.603127Q319.88437 36.478127 319.36874 37.259377Q318.85312 38.040627 317.88437 38.4625Q316.91562 38.884377 315.69687 38.884377Q313.68124 38.884377 312.61874 38.040627Q311.55624 37.196877 311.25937 35.55625ZM321.97812 26.353127L321.97812 24.337502L323.74374 24.337502L323.74374 26.353127L321.97812 26.353127ZM321.97812 38.65L321.97812 28.275002L323.74374 28.275002L323.74374 38.65L321.97812 38.65ZM325.04062 38.65L325.04062 37.228127L331.65 29.650002Q330.525 29.696877 329.66562 29.696877L325.43124 29.696877L325.43124 28.275002L333.91562 28.275002L333.91562 29.446877L328.29062 36.025L327.2125 37.228127Q328.38437 37.134377 329.43124 37.134377L334.22812 37.134377L334.22812 38.65L325.04062 38.65ZM343.07187 35.30625L344.88437 35.540627Q344.4625 37.11875 343.29062 38.009377Q342.13437 38.884377 340.32187 38.884377Q338.05624 38.884377 336.7125 37.49375Q335.38437 36.0875 335.38437 33.55625Q335.38437 30.931252 336.72812 29.493752Q338.07187 28.040627 340.22812 28.040627Q342.30624 28.040627 343.61874 29.462502Q344.94687 30.868752 344.94687 33.446877Q344.94687 33.603127 344.93124 33.915627L337.19687 33.915627Q337.29062 35.61875 338.16562 36.525Q339.04062 37.43125 340.3375 37.43125Q341.30624 37.43125 341.97812 36.93125Q342.66562 36.415627 343.07187 35.30625ZM337.29062 32.4625L343.0875 32.4625Q342.97812 31.165627 342.43124 30.509377Q341.5875 29.493752 340.24374 29.493752Q339.04062 29.493752 338.2125 30.306252Q337.38437 31.103127 337.29062 32.4625ZM356.32187 42.853127Q354.86874 41.025 353.86874 38.571877Q352.86874 36.103127 352.86874 33.4625Q352.86874 31.134377 353.61874 29.009377Q354.49374 26.540627 356.32187 24.087502L357.5875 24.087502Q356.4 26.118752 356.025 26.993752Q355.43124 28.337502 355.0875 29.806252Q354.66562 31.634377 354.66562 33.478127Q354.66562 38.165627 357.5875 42.853127L356.32187 42.853127ZM360.38437 38.65L360.38437 29.650002L358.8375 29.650002L358.8375 28.275002L360.38437 28.275002L360.38437 27.181252Q360.38437 26.134377 360.57187 25.618752Q360.82187 24.931252 361.4625 24.509377Q362.10312 24.087502 363.25937 24.087502Q364.00937 24.087502 364.9 24.259377L364.63437 25.790627Q364.0875 25.696877 363.60312 25.696877Q362.80624 25.696877 362.4625 26.040627Q362.13437 26.384377 362.13437 27.321877L362.13437 28.275002L364.16562 28.275002L364.16562 29.650002L362.13437 29.650002L362.13437 38.65L360.38437 38.65ZM372.75937 38.65L372.75937 37.11875Q371.55624 38.884377 369.47812 38.884377Q368.55624 38.884377 367.75937 38.540627Q366.9625 38.18125 366.57187 37.65Q366.19687 37.11875 366.04062 36.3375Q365.93124 35.821877 365.93124 34.696877L365.93124 28.275002L367.68124 28.275002L367.68124 34.025Q367.68124 35.4 367.79062 35.884377Q367.9625 36.571877 368.49374 36.978127Q369.04062 37.36875 369.82187 37.36875Q370.61874 37.36875 371.30624 36.9625Q372.00937 36.55625 372.29062 35.86875Q372.5875 35.165627 372.5875 33.8375L372.5875 28.275002L374.3375 28.275002L374.3375 38.65L372.75937 38.65ZM376.93124 38.65L376.93124 24.337502L378.68124 24.337502L378.68124 38.65L376.93124 38.65ZM380.93124 38.65L380.93124 24.337502L382.68124 24.337502L382.68124 38.65L380.93124 38.65ZM392.5875 38.65L390.9625 38.65L390.9625 24.337502L392.7125 24.337502L392.7125 29.446877Q393.8375 28.040627 395.55624 28.040627Q396.50937 28.040627 397.36874 28.431252Q398.22812 28.821877 398.775 29.525002Q399.32187 30.212502 399.63437 31.196877Q399.94687 32.18125 399.94687 33.30625Q399.94687 35.978127 398.63437 37.43125Q397.32187 38.884377 395.47812 38.884377Q393.63437 38.884377 392.5875 37.353127L392.5875 38.65ZM392.57187 33.384377Q392.57187 35.24375 393.07187 36.0875Q393.91562 37.43125 395.32187 37.43125Q396.47812 37.43125 397.30624 36.43125Q398.15 35.43125 398.15 33.446877Q398.15 31.415627 397.3375 30.462502Q396.54062 29.493752 395.4 29.493752Q394.24374 29.493752 393.4 30.493752Q392.57187 31.493752 392.57187 33.384377ZM408.75937 38.65L408.75937 37.11875Q407.55624 38.884377 405.47812 38.884377Q404.55624 38.884377 403.75937 38.540627Q402.9625 38.18125 402.57187 37.65Q402.19687 37.11875 402.04062 36.3375Q401.93124 35.821877 401.93124 34.696877L401.93124 28.275002L403.68124 28.275002L403.68124 34.025Q403.68124 35.4 403.79062 35.884377Q403.9625 36.571877 404.49374 36.978127Q405.04062 37.36875 405.82187 37.36875Q406.61874 37.36875 407.30624 36.9625Q408.00937 36.55625 408.29062 35.86875Q408.5875 35.165627 408.5875 33.8375L408.5875 28.275002L410.3375 28.275002L410.3375 38.65L408.75937 38.65ZM413.38437 38.65L413.38437 29.650002L411.8375 29.650002L411.8375 28.275002L413.38437 28.275002L413.38437 27.181252Q413.38437 26.134377 413.57187 25.618752Q413.82187 24.931252 414.4625 24.509377Q415.10312 24.087502 416.25937 24.087502Q417.00937 24.087502 417.9 24.259377L417.63437 25.790627Q417.0875 25.696877 416.60312 25.696877Q415.80624 25.696877 415.4625 26.040627Q415.13437 26.384377 415.13437 27.321877L415.13437 28.275002L417.16562 28.275002L417.16562 29.650002L415.13437 29.650002L415.13437 38.65L413.38437 38.65ZM419.38437 38.65L419.38437 29.650002L417.8375 29.650002L417.8375 28.275002L419.38437 28.275002L419.38437 27.181252Q419.38437 26.134377 419.57187 25.618752Q419.82187 24.931252 420.4625 24.509377Q421.10312 24.087502 422.25937 24.087502Q423.00937 24.087502 423.9 24.259377L423.63437 25.790627Q423.0875 25.696877 422.60312 25.696877Q421.80624 25.696877 421.4625 26.040627Q421.13437 26.384377 421.13437 27.321877L421.13437 28.275002L423.16562 28.275002L423.16562 29.650002L421.13437 29.650002L421.13437 38.65L419.38437 38.65ZM432.07187 35.30625L433.88437 35.540627Q433.4625 37.11875 432.29062 38.009377Q431.13437 38.884377 429.32187 38.884377Q427.05624 38.884377 425.7125 37.49375Q424.38437 36.0875 424.38437 33.55625Q424.38437 30.931252 425.72812 29.493752Q427.07187 28.040627 429.22812 28.040627Q431.30624 28.040627 432.61874 29.462502Q433.94687 30.868752 433.94687 33.446877Q433.94687 33.603127 433.93124 33.915627L426.19687 33.915627Q426.29062 35.61875 427.16562 36.525Q428.04062 37.43125 429.3375 37.43125Q430.30624 37.43125 430.97812 36.93125Q431.66562 36.415627 432.07187 35.30625ZM426.29062 32.4625L432.0875 32.4625Q431.97812 31.165627 431.43124 30.509377Q430.5875 29.493752 429.24374 29.493752Q428.04062 29.493752 427.2125 30.306252Q426.38437 31.103127 426.29062 32.4625ZM435.94687 38.65L435.94687 28.275002L437.525 28.275002L437.525 29.853127Q438.13437 28.743752 438.65 28.400002Q439.16562 28.040627 439.775 28.040627Q440.66562 28.040627 441.5875 28.603127L440.97812 30.243752Q440.3375 29.853127 439.69687 29.853127Q439.11874 29.853127 438.65 30.212502Q438.19687 30.556252 437.99374 31.165627Q437.7125 32.103127 437.7125 33.2125L437.7125 38.65L435.94687 38.65ZM444.11874 42.853127L442.86874 42.853127Q445.775 38.165627 445.775 33.478127Q445.775 31.634377 445.36874 29.837502Q445.025 28.368752 444.43124 27.025002Q444.05624 26.134377 442.86874 24.087502L444.11874 24.087502Q445.9625 26.540627 446.8375 29.009377Q447.5875 31.134377 447.5875 33.4625Q447.5875 36.103127 446.57187 38.571877Q445.57187 41.025 444.11874 42.853127Z" fill-rule="nonzero"/></svg>